<?xml version="1.0" encoding="UTF-8" standalone="no"?>
<svg width="353px" height="209px" viewBox="0 0 353 209" version="1.1" xmlns="http://www.w3.org/2000/svg" xmlns:xlink="http://www.w3.org/1999/xlink">
    <!-- Generator: Sketch 39.1 (31720) - http://www.bohemiancoding.com/sketch -->
    <title>V1-Logo+Text</title>
    <desc>Created with Sketch.</desc>
    <defs></defs>
    <g id="Page1" stroke="none" stroke-width="1" fill="none" fill-rule="evenodd">
        <g id="V1" transform="translate(-25.000000, -47.000000)">
            <g id="V1-Logo+Text" transform="translate(24.000000, 51.000000)">
                <g id="logo" transform="translate(80.000000, 0.000000)">
                    <g id="Group" transform="translate(66.000000, 0.000000)">
                        <path d="M14,9 L14,141.492497" id="Path-2" stroke="#384259" stroke-width="10" stroke-linecap="round" stroke-linejoin="round"></path>
                        <path d="M14.1074219,140.44336 L14.1074219,117.91211 C14.1074219,117.91211 6.42187511,60.7539062 74.6523422,56.40625" id="Path-3" stroke="#384259" stroke-width="10" stroke-linecap="round" stroke-linejoin="round"></path>
                        <path d="M14.7997345,146.59 C6.62816003,146.59 0,139.96919 0,131.795 C0,123.62081 6.62816003,117 14.7997345,117 C22.9618401,117 29.5900002,123.62081 29.5900002,131.795 C29.5900002,139.96919 22.9618401,146.59 14.7997345,146.59 Z" id="Fill-14" stroke="#7AC7C4" stroke-width="8" fill="#FFFFFF"></path>
                        <path d="M29.5900002,14.7950001 C29.5900002,22.9691903 22.9618401,29.5900002 14.7997345,29.5900002 C6.62816003,29.5900002 0,22.9691903 0,14.7950001 C0,6.62080989 6.62816003,0 14.7997345,0 C22.9618401,0 29.5900002,6.62080989 29.5900002,14.7950001" id="Fill-14" stroke="#7AC7C4" stroke-width="8" fill="#FFFFFF"></path>
                        <path d="M84.5900002,56.7950001 C84.5900002,64.9691903 77.9618401,71.5900002 69.7997345,71.5900002 C61.62816,71.5900002 55,64.9691903 55,56.7950001 C55,48.6208099 61.62816,42 69.7997345,42 C77.9618401,42 84.5900002,48.6208099 84.5900002,56.7950001" id="Fill-14" stroke="#7AC7C4" stroke-width="8" fill="#FFFFFF"></path>
                    </g>
                    <path d="M172.741396,24.9269757 C172.741396,23.6617666 172.550704,22.7372045 172.169314,22.1532619 C171.787924,21.5693192 170.92981,21.2773523 169.594946,21.2773523 L153.862696,21.2773523 C152.241789,21.2773523 151.026127,21.0827076 150.215674,20.6934125 C149.405221,20.3041174 149,19.5742 149,18.5036385 C149,17.1411056 149.595913,16.2165436 150.787756,15.7299247 C151.979599,15.2433058 153.671991,15 155.864982,15 L170.167028,15 C174.457663,15 177.151188,16.0218843 178.247683,18.0656837 C179.344179,20.109483 179.892419,23.0778137 179.892419,26.9707648 L179.892419,61.8611645 C179.892419,64.3915828 180.488331,66.3866903 181.680174,67.8465469 C182.872017,69.3064036 184.42139,70.036321 186.328339,70.036321 L190.618953,70.036321 C192.907292,70.036321 194.051444,71.0582053 194.051444,73.1020046 C194.051444,75.145804 192.907292,76.1676883 190.618953,76.1676883 L186.328339,76.1676883 C184.42139,76.1676883 182.872017,76.8976057 181.680174,78.3574623 C180.488331,79.817319 179.892419,81.8124265 179.892419,84.3428447 L179.892419,119.379229 C179.892419,123.272181 179.344179,126.216181 178.247683,128.211318 C177.151188,130.206456 174.457663,131.204009 170.167028,131.204009 L155.864982,131.204009 C153.671991,131.204009 151.979599,130.985034 150.787756,130.547077 C149.595913,130.10912 149,129.208889 149,127.846356 C149,126.775794 149.405221,126.045877 150.215674,125.656582 C151.026127,125.267287 152.241789,125.072642 153.862696,125.072642 L169.594946,125.072642 C170.92981,125.072642 171.787924,124.780675 172.169314,124.196732 C172.550704,123.61279 172.741396,122.688228 172.741396,121.423019 L172.741396,84.3428447 C172.741396,81.7151027 173.313472,79.4280283 174.457641,77.4815527 C175.601811,75.5350772 177.270366,74.0752424 179.463357,73.1020046 C174.982027,71.1555291 172.741396,67.457281 172.741396,62.0071495 L172.741396,24.9269757 Z" id="}" fill="#F73859"></path>
                    <path d="M21.3100487,121.423022 C21.3100487,122.688231 21.4769042,123.612793 21.8106203,124.196736 C22.1443364,124.780678 22.978614,125.072645 24.3134783,125.072645 L40.1887495,125.072645 C41.8096562,125.072645 43.0253179,125.26729 43.8357712,125.656585 C44.6462246,126.04588 45.0514452,126.775798 45.0514452,127.846359 C45.0514452,129.208892 44.4555325,130.109124 43.2636894,130.547081 C42.0718463,130.985038 40.3794544,131.204013 38.186463,131.204013 L23.884417,131.204013 C19.5937817,131.204013 16.9002566,130.206459 15.8037609,128.211322 C14.7072652,126.216184 14.1590256,123.272184 14.1590256,119.379233 L14.1590256,84.3428469 C14.1590256,81.8124286 13.563113,79.817321 12.3712699,78.3574643 C11.1794267,76.8976076 9.6300539,76.1676902 7.72310489,76.1676902 L3.43249106,76.1676902 C1.14415225,76.1676902 0,75.1458058 0,73.1020064 C0,71.058207 1.14415225,70.0363227 3.43249106,70.0363227 L7.72310489,70.0363227 C9.6300539,70.0363227 11.1794267,69.3064053 12.3712699,67.8465486 C13.563113,66.3866918 14.1590256,64.3915843 14.1590256,61.861166 L14.1590256,26.9707651 C14.1590256,23.0778139 14.7072652,20.1094831 15.8037609,18.0656838 C16.9002566,16.0218844 19.5937817,15 23.884417,15 L38.186463,15 C40.3794544,15 42.0718463,15.2189752 43.2636894,15.6569322 C44.4555325,16.0948892 45.0514452,16.9951207 45.0514452,18.3576536 C45.0514452,20.3041292 43.4305628,21.2773525 40.1887495,21.2773525 L24.3134783,21.2773525 C22.978614,21.2773525 22.1443364,21.5693194 21.8106203,22.1532621 C21.4769042,22.7372048 21.3100487,23.6617668 21.3100487,24.926976 L21.3100487,62.0071509 C21.3100487,67.4572826 19.0217442,71.1555308 14.4450665,73.1020064 C16.6380579,74.0752442 18.3304498,75.535079 19.5222929,77.4815546 C20.714136,79.4280303 21.3100487,81.7151048 21.3100487,84.3428469 L21.3100487,121.423022 Z" id="{" fill="#F73859"></path>
                </g>
                <path d="M9.808,191.52 L9.232,199.296 L9.232,199.584 C9.232,199.848 9.34599963,200.076 9.574,200.268 C9.80200037,200.460003 10.0360004,200.556002 10.276,200.556 C10.924,200.556 11.284,200.148 11.356,199.332 C11.4518206,198.012 11.5478202,196.71 11.644,195.426 C11.7398909,194.142 11.8358905,192.84 11.932,191.52 L14.596,191.52 C15.46,191.52 15.892,191.16 15.892,190.44 C15.892,189.743997 15.46,189.395997 14.596,189.396 L12.076,189.396 C12.1240004,188.676 12.166,188.028 12.202,187.452 C12.238,186.876 12.2799996,186.228 12.328,185.508 L15.316,185.508 C16.18,185.508 16.612,185.148 16.612,184.428 C16.612,183.732 16.18,183.384 15.316,183.384 L12.436,183.384 L13.012,175.752 C13.0120187,174.839996 12.664019,174.383996 11.968,174.384 C11.2960004,174.384 10.9479996,174.78 10.924,175.572 C10.8280004,176.891957 10.7319996,178.193958 10.636,179.478 C10.5400004,180.762 10.4439996,182.064 10.348,183.384 L7.756,183.384 L8.26,175.752 C8.26,174.839996 7.92399963,174.383996 7.252,174.384 C6.57999982,174.384 6.21999982,174.78 6.172,175.572 C6.07602838,176.891957 5.98002875,178.193958 5.884,179.478 C5.78802179,180.762 5.69202216,182.064 5.596,183.384 L3.004,183.384 C2.14,183.383987 1.708,183.731986 1.708,184.428 C1.708,185.148 2.14,185.508 3.004,185.508 L5.452,185.508 C5.40400018,186.228 5.362,186.876 5.326,187.452 C5.29,188.028 5.24799982,188.676 5.2,189.396 L2.284,189.396 C1.42,189.396 0.988,189.744 0.988,190.44 C0.988,191.16 1.42,191.52 2.284,191.52 L5.092,191.52 L4.516,199.188 L4.516,199.476 C4.516,199.788001 4.61799982,200.046001 4.822,200.25 C5.02600018,200.454 5.272,200.556 5.56,200.556 C6.18399982,200.556 6.54399982,200.148 6.64,199.332 C6.73600018,198.012 6.82600018,196.71 6.91,195.426 C6.99399982,194.142 7.08399982,192.84 7.18,191.52 L9.808,191.52 Z M7.576,185.508 L10.204,185.508 C10.1559832,186.228 10.1139835,186.876 10.078,187.452 C10.0423208,188.028 10.0003212,188.676 9.952,189.396 L7.324,189.396 C7.37200037,188.676 7.414,188.028 7.45,187.452 C7.486,186.876 7.52799963,186.228 7.576,185.508 L7.576,185.508 Z M28.04,176.436 C27.9919997,176.436 27.9559997,176.442001 27.932,176.454 C27.9080004,176.465999 27.8720004,176.472 27.824,176.472 C27.8000004,176.136001 27.7640004,175.848001 27.716,175.608 C27.6680557,175.367999 27.4040553,175.248 26.924,175.248 C26.5160129,175.415851 25.9640125,175.679851 25.268,176.04 C24.5720002,176.4 23.882,176.778 23.198,177.174 C22.514,177.569943 21.902,177.941942 21.362,178.29 C20.8220044,178.637928 20.5040046,178.883927 20.408,179.028 C20.408,179.603982 20.66,179.987982 21.164,180.18 C21.5239962,180.18 21.9079964,180.108 22.316,179.964 C22.724001,179.820035 23.1260011,179.646035 23.522,179.442 C23.918,179.237999 24.314,179.016001 24.71,178.776 C25.106,178.535999 25.484,178.308 25.844,178.092 L25.844,196.092 L21.992,196.092 C21.3680002,196.14 20.9059999,196.248 20.606,196.416 C20.3060019,196.584 20.1560022,196.883999 20.156,197.316 C20.2040004,197.58 20.3660004,197.76 20.642,197.856 C20.9180002,197.952 21.2600002,198 21.668,198 L32.684,198 C33.0920004,197.952 33.3800004,197.844 33.548,197.676 C33.71597,197.508 33.7999704,197.244 33.8,196.884 C33.728,196.572 33.53,196.368 33.206,196.272 C32.8820198,196.176 32.4800202,196.116 32,196.092 L28.076,196.092 L28.076,178.056 L28.076,177.246 C28.076,176.969999 28.0639997,176.699999 28.04,176.436 L28.04,176.436 Z M51.9960001,186.588 C51.9960342,184.908007 51.8280345,183.366007 51.4920001,181.962 C51.1559997,180.558 50.6699997,179.352 50.0340001,178.344 C49.3980005,177.336 48.6179997,176.550001 47.6940001,175.986 C46.7700005,175.421999 45.7320001,175.14 44.5800001,175.14 C43.4760005,175.14 42.4679999,175.416001 41.5560001,175.968 C40.6440003,176.519999 39.8640001,177.306001 39.2160001,178.326 C38.5680001,179.345999 38.0699997,180.582 37.7220001,182.034 C37.3740005,183.485994 37.2000001,185.111993 37.2000001,186.912 C37.2000001,188.592 37.3560005,190.14 37.6680001,191.556 C37.9799981,192.972 38.4419979,194.196 39.0540001,195.228 C39.6660001,196.26 40.4339999,197.064 41.3580001,197.64 C42.2820003,198.216 43.3560001,198.504 44.5800001,198.504 C45.7320001,198.504 46.7639997,198.228 47.6760001,197.676 C48.5880005,197.124 49.3620005,196.332 49.9980001,195.3 C50.6339679,194.268 51.1259675,193.014001 51.4740001,191.538 C51.8219129,190.062002 51.9959133,188.412002 51.9960001,186.588 L51.9960001,186.588 Z M44.6880001,177.084 C45.5039997,177.083875 46.2239997,177.329874 46.8480001,177.822 C47.4720005,178.313983 47.9940005,178.991982 48.4140001,179.856 C48.8340074,180.72 49.1520078,181.746 49.3680001,182.934 C49.5840001,184.122 49.6920001,185.412 49.6920001,186.804 L49.6920001,186.84 C49.6920001,188.232 49.5899997,189.528 49.3860001,190.728 C49.1820005,191.928 48.8699997,192.972 48.4500001,193.86 C48.0300005,194.748 47.5019997,195.444 46.8660001,195.948 C46.2300005,196.452 45.4800001,196.704 44.6160001,196.704 C43.6800001,196.704 42.8880001,196.434 42.2400001,195.894 C41.5920001,195.354 41.0639999,194.628 40.6560001,193.716 C40.2480003,192.804003 39.9479999,191.748004 39.7560001,190.548 C39.5640003,189.348004 39.4680001,188.088004 39.4680001,186.768 L39.4680001,186.588 C39.4680001,185.724016 39.5220001,184.848016 39.6300001,183.96 C39.7379902,183.072007 39.9059904,182.250008 40.1340001,181.494 C40.3619999,180.738 40.6499999,180.09 40.9980001,179.55 C41.3460003,179.01 41.7720001,178.656001 42.2760001,178.488 C42.5880003,178.056 42.9420001,177.714 43.3380001,177.462 C43.7340001,177.21 44.1840001,177.084 44.6880001,177.084 L44.6880001,177.084 Z M69.9400001,186.588 C69.9400342,184.908007 69.7720346,183.366007 69.4360001,181.962 C69.0999998,180.558 68.6139998,179.352 67.9780001,178.344 C67.3420005,177.336 66.5619998,176.550001 65.6380001,175.986 C64.7140005,175.421999 63.6760001,175.14 62.5240001,175.14 C61.4200005,175.14 60.412,175.416001 59.5000001,175.968 C58.5880003,176.519999 57.8080001,177.306001 57.1600001,178.326 C56.5120001,179.345999 56.0139998,180.582 55.6660001,182.034 C55.3180005,183.485994 55.1440001,185.111993 55.1440001,186.912 C55.1440001,188.592 55.3000005,190.14 55.6120001,191.556 C55.9239981,192.972 56.3859979,194.196 56.9980001,195.228 C57.6100001,196.26 58.378,197.064 59.3020001,197.64 C60.2260003,198.216 61.3000001,198.504 62.5240001,198.504 C63.6760001,198.504 64.7079998,198.228 65.6200001,197.676 C66.5320005,197.124 67.3060005,196.332 67.9420001,195.3 C68.5779679,194.268 69.0699676,193.014001 69.4180001,191.538 C69.765913,190.062002 69.9399134,188.412002 69.9400001,186.588 L69.9400001,186.588 Z M62.6320001,177.084 C63.4479998,177.083875 64.1679998,177.329874 64.7920001,177.822 C65.4160005,178.313983 65.9380005,178.991982 66.3580001,179.856 C66.7780075,180.72 67.0960078,181.746 67.3120001,182.934 C67.5280001,184.122 67.6360001,185.412 67.6360001,186.804 L67.6360001,186.84 C67.6360001,188.232 67.5339998,189.528 67.3300001,190.728 C67.1260005,191.928 66.8139998,192.972 66.3940001,193.86 C65.9740005,194.748 65.4459998,195.444 64.8100001,195.948 C64.1740005,196.452 63.4240001,196.704 62.5600001,196.704 C61.6240001,196.704 60.8320001,196.434 60.1840001,195.894 C59.5360001,195.354 59.008,194.628 58.6000001,193.716 C58.1920003,192.804003 57.892,191.748004 57.7000001,190.548 C57.5080003,189.348004 57.4120001,188.088004 57.4120001,186.768 L57.4120001,186.588 C57.4120001,185.724016 57.4660001,184.848016 57.5740001,183.96 C57.6819903,183.072007 57.8499904,182.250008 58.0780001,181.494 C58.306,180.738 58.594,180.09 58.9420001,179.55 C59.2900003,179.01 59.7160001,178.656001 60.2200001,178.488 C60.5320003,178.056 60.8860001,177.714 61.2820001,177.462 C61.6780001,177.21 62.1280001,177.084 62.6320001,177.084 L62.6320001,177.084 Z M77.852,178.308 L77.852,196.128 L77.456,196.128 C76.9039996,196.128 76.43,196.164 76.034,196.236 C75.638,196.308 75.4159998,196.548 75.368,196.956 C75.368,197.46 75.53,197.754 75.854,197.838 C76.178,197.922 76.5799996,197.976 77.06,198 L84.476,198 C87.3799996,197.88 89.6299996,196.896 91.226,195.048 C92.8219905,193.2 93.6199912,190.583999 93.62,187.2 L93.62,186.948 C93.62,185.34 93.3979993,183.882 92.954,182.574 C92.5100007,181.266 91.874,180.15 91.046,179.226 C90.218,178.301999 89.2159996,177.594001 88.04,177.102 C86.8640004,176.609999 85.5439996,176.364 84.08,176.364 C83.5280128,176.364 82.9880134,176.370001 82.46,176.382 C81.9319998,176.393999 81.3919998,176.4 80.84,176.4 L77.492,176.4 C76.8679996,176.4 76.358,176.454 75.962,176.562 C75.566,176.67 75.368,176.892001 75.368,177.228 C75.3679978,177.491999 75.427998,177.696 75.548,177.84 C75.6679998,177.984097 75.8299998,178.086096 76.034,178.146 C76.2380002,178.205396 76.4719996,178.247397 76.736,178.272 C77.0000004,178.296603 77.276,178.308602 77.564,178.308 L77.852,178.308 Z M91.316,186.768 L91.316,187.092 C91.316,188.7 91.1239996,190.074 90.74,191.214 C90.3560004,192.354 89.7919996,193.29 89.048,194.022 C88.3040004,194.753999 87.392,195.288 86.312,195.624 C85.232,195.96 83.9959996,196.128 82.604,196.128 L80.084,196.128 L80.084,178.308 C80.4919998,178.307361 80.9059998,178.30136 81.326,178.29 C81.7460002,178.278579 82.1600002,178.272578 82.568,178.272 C85.5680004,178.272 87.7759996,179.016001 89.192,180.504 C90.6080004,181.992 91.316,184.08 91.316,186.768 L91.316,186.768 Z M99.956,184.032 C99.956,184.464 100.052,184.836 100.244,185.148 C100.435991,185.46 100.627991,185.688 100.82,185.832 C101.227992,185.832046 101.593992,185.712046 101.918,185.472 C102.241997,185.231994 102.607997,184.967993 103.016,184.68 C103.423993,184.392 103.903992,184.134 104.456,183.906 C105.008,183.678 105.716,183.564 106.58,183.564 L106.616,183.564 C108.104,183.564 109.124,183.888 109.676,184.536 C110.228,185.184 110.528,186.084 110.576,187.236 L110.576,188.496 C110.095999,188.448 109.639999,188.394 109.208,188.334 C108.776005,188.273887 108.356006,188.243887 107.948,188.244 L106.472,188.244 C106.35207,188.268 106.22007,188.28 106.076,188.28 C105.932019,188.28 105.800019,188.292 105.68,188.316 C103.352,188.484 101.540001,189.036 100.244,189.972 C98.948,190.908 98.3,192.192 98.3,193.824 C98.3,194.544 98.4499996,195.186 98.75,195.75 C99.0500004,196.314 99.4579996,196.794 99.974,197.19 C100.49,197.586 101.102,197.886 101.81,198.09 C102.518,198.294 103.268,198.396 104.06,198.396 C105.284001,198.396 106.430001,198.198 107.498,197.802 C108.56599,197.406 109.615989,196.8 110.648,195.984 C110.671885,196.272 110.701886,196.542 110.738,196.794 C110.774,197.046 110.828,197.262 110.9,197.442 C110.972,197.622 111.086,197.76 111.242,197.856 C111.398,197.952 111.608,198 111.872,198 L113.564,198 C114.212,197.952 114.745999,197.862 115.166,197.73 C115.586001,197.598 115.832,197.376 115.904,197.064 C115.904154,196.728 115.802155,196.506 115.598,196.398 C115.393999,196.290001 115.159999,196.140001 114.896,195.948 C114.607998,195.948 114.307999,195.972 113.996,196.02 C113.684,196.068 113.408,196.092 113.168,196.092 C112.976058,195.996 112.862057,195.858 112.826,195.678 C112.79,195.498 112.772,195.24 112.772,194.904 L112.772,187.488 C112.748,186.528008 112.64,185.688008 112.448,184.968 C112.256047,184.248014 111.920047,183.642014 111.44,183.15 C110.960014,182.65804 110.324014,182.28604 109.532,182.034 C108.74,181.782 107.732,181.656 106.508,181.656 C106.268,181.656 105.974,181.674 105.626,181.71 C105.278,181.746 104.936,181.8 104.6,181.872 L104.564,181.872 C103.364,182.04 102.344,182.31 101.504,182.682 C100.664,183.054 100.148,183.504 99.956,184.032 L99.956,184.032 Z M110.576,190.332 L110.576,193.572 C109.784012,194.508 108.842012,195.228 107.75,195.732 C106.658004,196.236 105.500004,196.488 104.276,196.488 C103.196,196.488 102.308,196.224 101.612,195.696 C100.916,195.168001 100.568,194.496001 100.568,193.68 C100.568,193.104 100.742,192.588 101.09,192.132 C101.438,191.676 101.912,191.298 102.512,190.998 C103.112,190.698024 103.814,190.470025 104.618,190.314 C105.422,190.158024 106.292,190.080024 107.228,190.08 L108.236,190.08 C108.644,190.079941 109.046,190.10994 109.442,190.17 C109.838,190.23 110.216,190.284 110.576,190.332 L110.576,190.332 Z M127.496,197.496 C127.232,198 126.98,198.522 126.74,199.062 C126.5,199.602 126.23,200.124 125.93,200.628 C125.63,201.132 125.282,201.582 124.886,201.978 C124.49,202.374 124.004,202.668 123.428,202.86 L123.428,202.824 C123.092,202.775991 122.666,202.661991 122.15,202.482 C121.634,202.302 121.112,202.212 120.584,202.212 C120.344,202.212005 120.086,202.362005 119.81,202.662 C119.534001,202.962 119.396001,203.268 119.396,203.58 C119.395999,203.748012 119.527999,203.904012 119.792,204.048 C120.056,204.19202 120.38,204.31202 120.764,204.408 C121.148,204.504 121.562,204.576 122.006,204.624 C122.45,204.672 122.864,204.696 123.248,204.696 C123.92,204.695993 124.544,204.473993 125.12,204.03 C125.695998,203.586 126.205998,203.1 126.65,202.572 C127.094,202.044 127.448,201.558 127.712,201.114 C127.976,200.67 128.12,200.448 128.144,200.448 C129.08,198.504 130.04,196.482 131.024,194.382 C132.008,192.282001 132.992,190.164001 133.976,188.028 C134.384,187.14 134.726,186.384 135.002,185.76 C135.278,185.136 135.584,184.56 135.92,184.032 C136.520001,184.032053 136.952001,183.948052 137.216,183.78 C137.479865,183.612014 137.611866,183.312013 137.612,182.88 C137.61198,182.4 137.203981,182.136 136.388,182.088 L132.104,182.088 C131.624029,182.16 131.288029,182.28 131.096,182.448 C130.904037,182.616 130.808037,182.88 130.808,183.24 C130.904,183.768 131.372,184.032 132.212,184.032 L133.724,184.032 C132.884,185.832 132.038,187.68 131.186,189.576 C130.334,191.472001 129.5,193.320001 128.684,195.12 C127.819999,193.32 126.949999,191.502 126.074,189.666 C125.198,187.83 124.304,185.952 123.392,184.032 L124.76,184.032 C125.144,184.032 125.468,183.96 125.732,183.816 C125.995973,183.672 126.127973,183.384 126.128,182.952 C126.08,182.76 125.966,182.574 125.786,182.394 C125.606,182.214136 125.3,182.112136 124.868,182.088 L120.404,182.088 C119.948,182.088031 119.582,182.14803 119.306,182.268 C119.03,182.387941 118.892,182.651941 118.892,183.06 C118.892,183.3 118.928,183.462 119,183.546 C119.071999,183.63 119.167999,183.702 119.288,183.762 C119.408,183.822 119.552,183.882 119.72,183.942 C119.888,184.002 120.068,184.128 120.26,184.32 L120.476,184.32 C120.596,184.344 120.812,184.356 121.124,184.356 C122.204001,186.54 123.272001,188.73 124.328,190.926 C125.383997,193.122 126.439997,195.312 127.496,197.496 L127.496,197.496 Z M155.216,193.644 C155.215971,194.124 155.083972,194.544001 154.82,194.904 C154.556033,195.264 154.202032,195.57 153.758,195.822 C153.314039,196.074 152.798039,196.266 152.21,196.398 C151.621995,196.529998 151.003996,196.595998 150.356,196.596 C149.660004,196.596 149.000005,196.524 148.376,196.38 C147.752,196.236 147.188,196.032 146.684,195.768 C146.180006,195.504 145.772006,195.192 145.46,194.832 C145.148006,194.471999 144.956006,194.064 144.884,193.608 C144.764,193.2 144.602,192.894 144.398,192.69 C144.193999,192.486 143.911999,192.384 143.552,192.384 C143.288003,192.384 143.102003,192.498 142.994,192.726 C142.886,192.954 142.832,193.248 142.832,193.608 L142.832,196.704 L142.832,196.776 C142.832,197.064 142.892,197.244 143.012,197.316 C143.132,197.388 143.294,197.406 143.498,197.37 C143.702,197.334 143.942,197.274 144.218,197.19 C144.494,197.106 144.788,197.04 145.1,196.992 C145.772,197.472 146.564,197.832 147.476,198.072 C148.388,198.312 149.372,198.432 150.428,198.432 C151.436,198.432 152.372,198.324 153.236,198.108 C154.1,197.892 154.856,197.574 155.504,197.154 C156.152,196.734 156.656,196.218 157.016,195.606 C157.376,194.994 157.556,194.292 157.556,193.5 C157.556,192.516003 157.34,191.748004 156.908,191.196 C156.476,190.644003 155.882,190.206003 155.126,189.882 C154.37,189.55801 153.476,189.30001 152.444,189.108 C151.412,188.916027 150.308,188.712026 149.132,188.496 C147.884,188.256 146.96,187.968 146.36,187.632 C145.760003,187.296 145.460003,186.816 145.46,186.192 C145.46,185.76 145.58,185.376 145.82,185.04 C146.06,184.704 146.378,184.428 146.774,184.212 C147.17,183.996 147.632,183.828 148.16,183.708 C148.687991,183.588 149.239991,183.528 149.816,183.528 C150.56,183.528 151.19,183.582 151.706,183.69 C152.222,183.798 152.66,183.954 153.02,184.158 C153.38,184.362 153.668,184.608 153.884,184.896 C154.1,185.184 154.28,185.52 154.424,185.904 C154.495971,186.144 154.579972,186.384 154.676,186.624 C154.772,186.864 154.988,187.008 155.324,187.056 L155.54,187.056 C155.948,187.055989 156.23,186.863989 156.386,186.48 C156.542,186.096011 156.62,185.496012 156.62,184.68 C156.620266,184.56 156.614265,184.404 156.602,184.212 C156.59,184.02 156.572,183.834 156.548,183.654 C156.524,183.474 156.476,183.33 156.404,183.222 C156.332,183.114 156.248,183.072 156.152,183.096 L155.684,183.24 C155.49203,183.192 155.162031,183.084 154.694,182.916 C154.226,182.748 153.704,182.568 153.128,182.376 C152.552,182.184 151.964,182.016 151.364,181.872 C150.764,181.728 150.248,181.656 149.816,181.656 C148.856,181.656 147.974,181.764 147.17,181.98 C146.366,182.195984 145.67,182.507983 145.082,182.916 C144.494,183.324 144.038,183.81 143.714,184.374 C143.39,184.938 143.228,185.568 143.228,186.264 C143.228,187.2 143.444,187.938 143.876,188.478 C144.308,189.018 144.902,189.438 145.658,189.738 C146.414002,190.038 147.302002,190.278 148.322,190.458 C149.342,190.638 150.452,190.836 151.652,191.052 C152.755985,191.244 153.625985,191.532 154.262,191.916 C154.897982,192.3 155.215982,192.876 155.216,193.644 L155.216,193.644 Z M162.74,185.76 L162.74,185.976 C162.716,186.144 162.704,186.3 162.704,186.444 L162.704,186.876 L162.704,187.2 C162.704,188.736 162.89,190.188 163.262,191.556 C163.634,192.923999 164.198,194.117999 164.954,195.138 C165.71,196.158 166.658,196.968 167.798,197.568 C168.938,198.168 170.264,198.468 171.776,198.468 C173.12,198.468 174.356,198.216 175.484,197.712 C176.612,197.208 177.578,196.482 178.382,195.534 C179.185965,194.586 179.809966,193.422 180.254,192.042 C180.697927,190.662 180.919927,189.096 180.92,187.344 L180.92,187.236 C180.920132,185.748 180.746133,184.344 180.398,183.024 C180.049997,181.703994 179.533998,180.539993 178.85,179.532 C178.166,178.524018 177.302,177.708017 176.258,177.084 C175.214,176.460001 173.996,176.100001 172.604,176.004 L172.496,176.004 C172.352,175.956337 172.214,175.926338 172.082,175.914 C171.95,175.902844 171.812,175.896844 171.668,175.896 C169.124001,175.896 167.066001,176.76 165.494,178.488 C163.922,180.216 163.004,182.64 162.74,185.76 L162.74,185.76 Z M165.008,187.416 C165.007999,184.344 165.625999,181.98 166.862,180.324 C168.097998,178.668 169.747998,177.84 171.812,177.84 C172.94,177.839943 173.924,178.085942 174.764,178.578 C175.604,179.069939 176.306,179.735938 176.87,180.576 C177.43396,181.415977 177.85396,182.399978 178.13,183.528 C178.405941,184.655994 178.543942,185.855994 178.544,187.128 L178.544,187.164 C178.544,188.484 178.4,189.72 178.112,190.872 C177.824,192.024 177.398,193.02 176.834,193.86 C176.27,194.7 175.568,195.366 174.728,195.858 C173.888,196.35 172.916,196.595999 171.812,196.596 C170.708,196.596 169.73,196.356 168.878,195.876 C168.026003,195.396 167.312003,194.736 166.736,193.896 C166.16,193.056 165.728,192.084 165.44,190.98 C165.152,189.876 165.008,188.688 165.008,187.416 L165.008,187.416 Z M200.936,177.696 C200.984,177.791471 201.026,177.887472 201.062,177.984 C201.09772,178.079906 201.211719,178.127906 201.404,178.128 C201.595841,178.080001 201.80584,177.972001 202.034,177.804 C202.26185,177.635999 202.399849,177.455999 202.448,177.264 C202.304,176.472073 201.847999,175.908072 201.08,175.572 C200.312,175.23635 199.232,175.044351 197.84,174.996 L197.516,174.996 C195.332,174.996 193.67,175.41 192.53,176.238 C191.389998,177.065993 190.819998,178.463993 190.82,180.432 L190.82,182.232 L187.904,182.232 C187.424,182.231925 187.076,182.327925 186.86,182.52 C186.644,182.712 186.536,182.964 186.536,183.276 C186.536,183.516 186.626,183.732 186.806,183.924 C186.986,184.115842 187.292,184.211842 187.724,184.212 L190.82,184.212 L190.82,194.904 L190.82,195.336 C190.82,195.599999 190.784,195.791999 190.712,195.912 C190.64,196.032 190.436,196.092 190.1,196.092 L187.58,196.092 C187.172,196.092 186.884,196.164 186.716,196.308 C186.548,196.452 186.464,196.704 186.464,197.064 C186.464,197.688 186.896,198 187.76,198 L198.092,198 C198.524,198 198.902,197.952 199.226,197.856 C199.55,197.76 199.748,197.58 199.82,197.316 C199.82,196.86 199.664,196.572 199.352,196.452 C199.04,196.332002 198.62,196.212002 198.092,196.092 L195.14,196.092 C194.924,196.092 194.714,196.098 194.51,196.11 C194.306,196.122 194.108,196.128 193.916,196.128 C193.436048,196.128 193.172048,196.044 193.124,195.876 C193.07596,195.708 193.05196,195.384 193.052,194.904 L193.052,184.212 L199.064,184.212 C199.472,184.139999 199.784,184.019999 200,183.852 C200.216,183.684028 200.324,183.408028 200.324,183.024 C200.276167,182.808 200.156166,182.646 199.964,182.538 C199.772,182.43 199.538,182.352 199.262,182.304 C198.986,182.256 198.686,182.232 198.362,182.232 L197.408,182.232 L193.052,182.232 C193.052158,181.968 193.046159,181.692 193.034,181.404 C193.02198,181.116 193.01598,180.84 193.016,180.576 C193.015976,179.327999 193.297976,178.409999 193.862,177.822 C194.426002,177.233988 195.392002,176.939987 196.76,176.94 C197.048,176.940094 197.39,176.970094 197.786,177.03 C198.182,177.089524 198.584,177.155523 198.992,177.228 C199.4,177.3 199.778,177.378001 200.126,177.462 C200.474,177.545999 200.744,177.624 200.936,177.696 L200.936,177.696 Z M206.588,186.984 C206.588,188.592 206.804,190.092 207.236,191.484 C207.667999,192.876 208.291999,194.094 209.108,195.138 C209.924,196.182 210.926,197.004 212.114,197.604 C213.302,198.204 214.652,198.504 216.164,198.504 C217.123986,198.504 218.029986,198.372 218.882,198.108 C219.73399,197.844 220.50199,197.496 221.186,197.064 C221.87,196.632 222.446,196.146 222.914,195.606 C223.382,195.066 223.699999,194.52 223.868,193.968 C223.868073,193.224 223.604073,192.696 223.076,192.384 C222.716018,192.47999 222.350018,192.73799 221.978,193.158 C221.606042,193.578 221.252042,193.932 220.916,194.22 C220.364015,194.892 219.722015,195.45 218.99,195.894 C218.258,196.338 217.34,196.56 216.236,196.56 L216.2,196.56 C215.12,196.56 214.136,196.32 213.248,195.84 C212.36,195.36 211.604,194.706 210.98,193.878 C210.356,193.05 209.87,192.078 209.522,190.962 C209.174013,189.846 209.000013,188.652 209,187.38 C209,186.084 209.144,184.86 209.432,183.708 C209.719998,182.556 210.157998,181.542 210.746,180.666 C211.334,179.790035 212.072,179.094034 212.96,178.578 C213.848,178.062097 214.892,177.804097 216.092,177.804 C217.532,177.804 218.72,178.182 219.656,178.938 C220.592,179.694 221.156,180.612 221.348,181.692 C221.468,182.099948 221.576,182.453948 221.672,182.754 C221.768008,183.05396 221.996009,183.203959 222.356,183.204 C222.811929,183.204046 223.11193,183.066046 223.256,182.79 C223.4,182.514014 223.472,182.124013 223.472,181.62 L223.472,181.512 C223.472,181.032 223.465999,180.564 223.454,180.108 C223.442001,179.652034 223.436,179.184034 223.436,178.704 L223.436,178.056 C223.43513,177.84 223.459131,177.624 223.508,177.408 C223.436,176.663999 223.112,176.292 222.536,176.292 C222.127991,176.292 221.815991,176.460001 221.6,176.796 C221.383979,177.131999 221.215979,177.408 221.096,177.624 C219.608008,176.472 217.904008,175.896 215.984,175.896 C214.352006,175.896 212.948006,176.226001 211.772,176.886 C210.596,177.545999 209.624,178.409999 208.856,179.478 C208.088002,180.546 207.518001,181.74 207.146,183.06 C206.774001,184.38 206.588001,185.688 206.588,186.984 L206.588,186.984 Z M228.548,190.116 C228.548,191.34 228.758,192.456 229.178,193.464 C229.597999,194.472 230.185999,195.342 230.942,196.074 C231.698,196.806 232.592,197.376 233.624,197.784 C234.656,198.192 235.784,198.396 237.008,198.396 L237.116,198.396 C238.291988,198.396 239.395987,198.192 240.428,197.784 C241.46,197.376 242.36,196.806 243.128,196.074 C243.896,195.342 244.496,194.46 244.928,193.428 C245.36,192.396 245.576,191.268 245.576,190.044 C245.576257,189.036 245.420258,188.082 245.108,187.182 C244.796052,186.281998 244.352052,185.477997 243.776,184.77 C243.2,184.062 242.522,183.468 241.742,182.988 C240.962,182.508 240.104,182.16 239.168,181.944 C238.88,181.847998 238.544,181.799998 238.16,181.8 L238.088,181.8 C237.992,181.8 237.92,181.812 237.872,181.836 C237.776,181.812495 237.644,181.800494 237.476,181.8 C236.252,181.8 235.094,181.992 234.002,182.376 C232.91,182.76 231.962,183.306 231.158,184.014 C230.354,184.722 229.718,185.592 229.25,186.624 C228.782,187.656 228.548,188.82 228.548,190.116 L228.548,190.116 Z M230.852,190.044 C230.852,189.156 230.996,188.322001 231.284,187.542 C231.572,186.76201 231.986,186.08401 232.526,185.508 C233.066,184.932032 233.714,184.470031 234.47,184.122 C235.226,183.774095 236.072,183.588095 237.008,183.564 L237.08,183.564 C237.968002,183.564 238.790002,183.726 239.546,184.05 C240.302,184.373988 240.95,184.829988 241.49,185.418 C242.029971,186.005982 242.455972,186.701982 242.768,187.506 C243.079914,188.309988 243.235914,189.191988 243.236,190.152 C243.236,191.064 243.08,191.91 242.768,192.69 C242.456,193.47 242.024,194.142 241.472,194.706 C240.919997,195.27 240.265998,195.714 239.51,196.038 C238.754,196.362 237.932,196.524 237.044,196.524 C236.156,196.524 235.334,196.362 234.578,196.038 C233.822,195.714 233.168,195.264 232.616,194.688 C232.064,194.112 231.632,193.428 231.32,192.636 C231.007999,191.844 230.851999,190.98 230.852,190.044 L230.852,190.044 Z M251.912,182.124 C251.816,182.100486 251.72,182.088486 251.624,182.088 L251.3,182.088 C250.94,182.08791 250.586,182.12991 250.238,182.214 C249.89,182.297941 249.578001,182.39994 249.302,182.52 C249.026,182.639982 248.81,182.771981 248.654,182.916 C248.498,183.06 248.42,183.204 248.42,183.348 C248.42,183.54 248.522,183.702 248.726,183.834 C248.93,183.966 249.128,184.044 249.32,184.068 L249.896,184.068 C250.088,184.067787 250.28,184.055786 250.472,184.032 L250.472,195.588 C250.400002,195.684 250.322002,195.774 250.238,195.858 C250.154,195.942 250.076,196.032 250.004,196.128 C249.38,196.151997 248.984,196.247997 248.816,196.416 C248.648,196.584 248.564,196.728 248.564,196.848 C248.564,197.112 248.66,197.316 248.852,197.46 C249.044,197.604 249.14,197.784 249.14,198 L253.244,198 C253.7,198 254.042,197.952 254.27,197.856 C254.497975,197.76 254.635974,197.544 254.684,197.208 C254.684,196.848 254.594,196.59 254.414,196.434 C254.234,196.278002 253.94,196.176002 253.532,196.128 L252.596,196.128 L252.596,190.656 C252.596,190.464007 252.59,190.290008 252.578,190.134 C252.566,189.978 252.56,189.816 252.56,189.648 C252.56,189.024 252.578,188.418 252.614,187.83 C252.649982,187.242 252.691982,186.684 252.74,186.156 C253.219996,185.340019 253.735996,184.740019 254.288,184.356 C254.839997,183.972054 255.391997,183.780054 255.944,183.78 C256.76,183.78 257.3,184.116 257.564,184.788 C257.828,185.46 257.96,186.3 257.96,187.308 L257.96,196.056 C257.76807,196.176 257.63007,196.314 257.546,196.47 C257.462,196.626 257.408,196.8 257.384,196.992 C257.432,197.28 257.528,197.52 257.672,197.712 C257.816,197.904 258.128,198 258.608,198 L260.66,198 C261.572,198 262.028,197.592 262.028,196.776 C261.956033,196.344 261.608033,196.128 260.984,196.128 L260.012,196.128 L260.012,188.316 C260.012,187.644 260.108,187.032 260.3,186.48 C260.492,185.928 260.75,185.454 261.074,185.058 C261.397975,184.662 261.769975,184.35 262.19,184.122 C262.609951,183.894 263.047951,183.78 263.504,183.78 C264.2,183.779974 264.68,184.055973 264.944,184.608 C265.208,185.16 265.352,185.916 265.376,186.876 L265.376,196.128 C265.232,196.392 265.094,196.572 264.962,196.668 C264.83,196.764 264.764,196.931999 264.764,197.172 C264.763888,197.58 264.865888,197.82 265.07,197.892 C265.274,197.964 265.58,198 265.988,198 L267.86,198 C268.244001,198 268.609999,197.952 268.958,197.856 C269.306001,197.76 269.48,197.472 269.48,196.992 C269.48,196.584001 269.293999,196.338001 268.922,196.254 C268.550001,196.170002 268.064001,196.128002 267.464,196.128 L267.464,187.2 C267.464,186.407997 267.403999,185.675996 267.284,185.004 C267.164001,184.332014 266.96,183.750014 266.672,183.258 C266.384,182.766037 266.006,182.382037 265.538,182.106 C265.07002,181.829998 264.48802,181.691998 263.792,181.692 C262.208007,181.691987 260.780007,182.507986 259.508,184.14 C259.148,183.276 258.716,182.658 258.212,182.286 C257.708,181.914 257.096,181.728 256.376,181.728 C255.536,181.728 254.81,181.908 254.198,182.268 C253.586,182.627996 253.028,183.155995 252.524,183.852 C252.5,183.444 252.464,183.096 252.416,182.808 C252.368002,182.52004 252.200002,182.292039 251.912,182.124 L251.912,182.124 Z M273.656,182.124 C273.56,182.100486 273.464,182.088486 273.368,182.088 L273.044,182.088 C272.684,182.08791 272.33,182.12991 271.982,182.214 C271.634,182.297941 271.322001,182.39994 271.046,182.52 C270.77,182.639982 270.554,182.771981 270.398,182.916 C270.242,183.06 270.164,183.204 270.164,183.348 C270.164,183.54 270.266,183.702 270.47,183.834 C270.674,183.966 270.872,184.044 271.064,184.068 L271.64,184.068 C271.832,184.067787 272.024,184.055786 272.216,184.032 L272.216,195.588 C272.144002,195.684 272.066002,195.774 271.982,195.858 C271.898,195.942 271.82,196.032 271.748,196.128 C271.124,196.151997 270.728,196.247997 270.56,196.416 C270.392,196.584 270.308,196.728 270.308,196.848 C270.308,197.112 270.404,197.316 270.596,197.46 C270.788,197.604 270.884,197.784 270.884,198 L274.988,198 C275.444,198 275.786,197.952 276.014,197.856 C276.241975,197.76 276.379974,197.544 276.428,197.208 C276.428,196.848 276.338,196.59 276.158,196.434 C275.978,196.278002 275.684,196.176002 275.276,196.128 L274.34,196.128 L274.34,190.656 C274.34,190.464007 274.334,190.290008 274.322,190.134 C274.31,189.978 274.304,189.816 274.304,189.648 C274.304,189.024 274.322,188.418 274.358,187.83 C274.393982,187.242 274.435982,186.684 274.484,186.156 C274.963996,185.340019 275.479996,184.740019 276.032,184.356 C276.583997,183.972054 277.135997,183.780054 277.688,183.78 C278.504,183.78 279.044,184.116 279.308,184.788 C279.572,185.46 279.704,186.3 279.704,187.308 L279.704,196.056 C279.51207,196.176 279.37407,196.314 279.29,196.47 C279.206,196.626 279.152,196.8 279.128,196.992 C279.176,197.28 279.272,197.52 279.416,197.712 C279.56,197.904 279.872,198 280.352,198 L282.404,198 C283.316,198 283.772,197.592 283.772,196.776 C283.700033,196.344 283.352033,196.128 282.728,196.128 L281.756,196.128 L281.756,188.316 C281.756,187.644 281.852,187.032 282.044,186.48 C282.236,185.928 282.494,185.454 282.818,185.058 C283.141975,184.662 283.513975,184.35 283.934,184.122 C284.353951,183.894 284.791951,183.78 285.248,183.78 C285.944,183.779974 286.424,184.055973 286.688,184.608 C286.952,185.16 287.096,185.916 287.12,186.876 L287.12,196.128 C286.976,196.392 286.838,196.572 286.706,196.668 C286.574,196.764 286.508,196.931999 286.508,197.172 C286.507888,197.58 286.609888,197.82 286.814,197.892 C287.018,197.964 287.324,198 287.732,198 L289.604,198 C289.988001,198 290.353999,197.952 290.702,197.856 C291.050001,197.76 291.224,197.472 291.224,196.992 C291.224,196.584001 291.037999,196.338001 290.666,196.254 C290.294001,196.170002 289.808001,196.128002 289.208,196.128 L289.208,187.2 C289.208,186.407997 289.147999,185.675996 289.028,185.004 C288.908001,184.332014 288.704,183.750014 288.416,183.258 C288.128,182.766037 287.75,182.382037 287.282,182.106 C286.81402,181.829998 286.23202,181.691998 285.536,181.692 C283.952007,181.691987 282.524007,182.507986 281.252,184.14 C280.892,183.276 280.46,182.658 279.956,182.286 C279.452,181.914 278.84,181.728 278.12,181.728 C277.28,181.728 276.554,181.908 275.942,182.268 C275.33,182.627996 274.772,183.155995 274.268,183.852 C274.244,183.444 274.208,183.096 274.16,182.808 C274.112002,182.52004 273.944002,182.292039 273.656,182.124 L273.656,182.124 Z M302.816,181.944 C302.288,181.944 301.712,181.98 301.088,182.052 C300.464,182.124 299.84,182.16 299.216,182.16 L297.74,182.16 C297.14,182.232 296.672,182.298 296.336,182.358 C296.000004,182.418 295.772004,182.616 295.652,182.952 C295.651998,183.720001 296.143998,184.104001 297.128,184.104 L298.316,184.104 C298.868,184.104105 299.408,184.092105 299.936,184.068 C300.463991,184.044427 300.991992,184.032426 301.52,184.032 L301.52,194.688 L301.52,194.976 C301.52,195.288 301.502,195.522 301.466,195.678 C301.43,195.834 301.364,195.948 301.268,196.02 C301.172,196.092 301.034,196.128 300.854,196.128 L300.188,196.128 L296.552,196.128 C295.496,196.127999 294.968,196.463999 294.968,197.136 C294.968,197.472 295.1,197.7 295.364,197.82 C295.628,197.94 295.964,198 296.372,198 L308.54,198 C309.211949,198 309.703949,197.946 310.016,197.838 C310.328001,197.73 310.484,197.4 310.484,196.848 C310.412,196.584 310.268,196.404 310.052,196.308 C309.836,196.212 309.548,196.152 309.188,196.128 L304.94,196.128 C304.604,196.128 304.352,196.11 304.184,196.074 C304.016,196.038002 303.896,195.978002 303.824,195.894 C303.752,195.810001 303.716,195.678001 303.716,195.498 L303.716,194.796 L303.716,183.708 C303.716216,183.156 303.674217,182.736 303.59,182.448 C303.506029,182.16 303.24803,181.992 302.816,181.944 L302.816,181.944 Z M303.068,174.6 C302.06,174.6 301.394,174.78 301.07,175.14 C300.746,175.5 300.584,176.04 300.584,176.76 C300.584,177.383999 300.734,177.887999 301.034,178.272 C301.334,178.655886 301.748,178.847886 302.276,178.848 C302.828,178.848145 303.26,178.716144 303.572,178.452 C303.883971,178.188001 304.039971,177.756001 304.04,177.156 C304.040046,176.555999 303.962047,176.04 303.806,175.608 C303.650068,175.176 303.404067,174.840001 303.068,174.6 L303.068,174.6 Z M319.232,180.468 L319.232,182.268 C318.728004,182.315582 318.248005,182.345582 317.792,182.358 C317.336,182.369656 316.928,182.393656 316.568,182.43 C316.208,182.465917 315.908,182.543916 315.668,182.664 C315.428,182.784 315.272001,182.964 315.2,183.204 C315.200001,183.66 315.314001,183.954 315.542,184.086 C315.77,184.218 316.16,184.284 316.712,184.284 L319.304,184.284 L319.304,192.528 C319.304,193.632 319.412,194.562 319.628,195.318 C319.843993,196.074 320.173993,196.68 320.618,197.136 C321.061996,197.592 321.631996,197.916 322.328,198.108 C323.024,198.3 323.864,198.396 324.848,198.396 C325.495984,198.396 326.191984,198.33 326.936,198.198 C327.68,198.066 328.382,197.874 329.042,197.622 C329.702,197.37 330.284,197.064 330.788,196.704 C331.292,196.344 331.627999,195.936 331.796,195.48 C331.772426,195.240003 331.694427,194.994002 331.562,194.742 C331.43,194.489999 331.256,194.316 331.04,194.22 C330.8,194.291994 330.488,194.441994 330.104,194.67 C329.72,194.897999 329.276,195.143999 328.772,195.408 C328.268,195.672 327.698,195.906 327.062,196.11 C326.426,196.314 325.736,196.415999 324.992,196.416 C324.296,196.416 323.72,196.332 323.264,196.164 C322.808,195.996 322.448,195.738 322.184,195.39 C321.92,195.042001 321.74,194.598001 321.644,194.058 C321.548053,193.518 321.500053,192.876 321.5,192.132 L321.5,184.32 C322.628,184.296 323.75,184.278 324.866,184.266 C325.982,184.254 327.104,184.248 328.232,184.248 C328.712,184.248 329.126,184.194 329.474,184.086 C329.82194,183.978 329.995941,183.756 329.996,183.42 C329.996075,183.012 329.864075,182.73 329.6,182.574 C329.336028,182.418 328.952029,182.34 328.448,182.34 C327.272,182.33976 326.102,182.345761 324.938,182.358 C323.774,182.369823 322.604,182.375823 321.428,182.376 C321.452,181.896 321.476,181.428 321.5,180.972 C321.524,180.516 321.536,180.048 321.536,179.568 C321.536,178.823999 321.476,178.265999 321.356,177.894 C321.236,177.522117 320.852,177.336116 320.204,177.336 C319.964021,177.359621 319.778021,177.473621 319.646,177.678 C319.514023,177.882001 319.418023,178.134001 319.358,178.434 C319.298,178.733999 319.262,179.064 319.25,179.424 C319.238,179.784004 319.232,180.132004 319.232,180.468 L319.232,180.468 Z M350.912,193.644 C350.911971,194.124 350.779972,194.544001 350.516,194.904 C350.252033,195.264 349.898032,195.57 349.454,195.822 C349.010039,196.074 348.494039,196.266 347.906,196.398 C347.317995,196.529998 346.699996,196.595998 346.052,196.596 C345.356004,196.596 344.696005,196.524 344.072,196.38 C343.448,196.236 342.884,196.032 342.38,195.768 C341.876006,195.504 341.468006,195.192 341.156,194.832 C340.844006,194.471999 340.652006,194.064 340.58,193.608 C340.46,193.2 340.298,192.894 340.094,192.69 C339.889999,192.486 339.607999,192.384 339.248,192.384 C338.984003,192.384 338.798003,192.498 338.69,192.726 C338.582,192.954 338.528,193.248 338.528,193.608 L338.528,196.704 L338.528,196.776 C338.528,197.064 338.588,197.244 338.708,197.316 C338.828,197.388 338.99,197.406 339.194,197.37 C339.398,197.334 339.638,197.274 339.914,197.19 C340.19,197.106 340.484,197.04 340.796,196.992 C341.468,197.472 342.26,197.832 343.172,198.072 C344.084,198.312 345.068,198.432 346.124,198.432 C347.132,198.432 348.068,198.324 348.932,198.108 C349.796,197.892 350.552,197.574 351.2,197.154 C351.848,196.734 352.352,196.218 352.712,195.606 C353.072,194.994 353.252,194.292 353.252,193.5 C353.252,192.516003 353.036,191.748004 352.604,191.196 C352.172,190.644003 351.578,190.206003 350.822,189.882 C350.066,189.55801 349.172,189.30001 348.14,189.108 C347.108,188.916027 346.004,188.712026 344.828,188.496 C343.58,188.256 342.656,187.968 342.056,187.632 C341.456003,187.296 341.156003,186.816 341.156,186.192 C341.156,185.76 341.276,185.376 341.516,185.04 C341.756,184.704 342.074,184.428 342.47,184.212 C342.866,183.996 343.328,183.828 343.856,183.708 C344.383991,183.588 344.935991,183.528 345.512,183.528 C346.256,183.528 346.886,183.582 347.402,183.69 C347.918,183.798 348.356,183.954 348.716,184.158 C349.076,184.362 349.364,184.608 349.58,184.896 C349.796,185.184 349.976,185.52 350.12,185.904 C350.191971,186.144 350.275972,186.384 350.372,186.624 C350.468,186.864 350.684,187.008 351.02,187.056 L351.236,187.056 C351.644,187.055989 351.926,186.863989 352.082,186.48 C352.238,186.096011 352.316,185.496012 352.316,184.68 C352.316266,184.56 352.310265,184.404 352.298,184.212 C352.286,184.02 352.268,183.834 352.244,183.654 C352.22,183.474 352.172,183.33 352.1,183.222 C352.028,183.114 351.944,183.072 351.848,183.096 L351.38,183.24 C351.18803,183.192 350.858031,183.084 350.39,182.916 C349.922,182.748 349.4,182.568 348.824,182.376 C348.248,182.184 347.66,182.016 347.06,181.872 C346.46,181.728 345.944,181.656 345.512,181.656 C344.552,181.656 343.67,181.764 342.866,181.98 C342.062,182.195984 341.366,182.507983 340.778,182.916 C340.19,183.324 339.734,183.81 339.41,184.374 C339.086,184.938 338.924,185.568 338.924,186.264 C338.924,187.2 339.14,187.938 339.572,188.478 C340.004,189.018 340.598,189.438 341.354,189.738 C342.110002,190.038 342.998002,190.278 344.018,190.458 C345.038,190.638 346.148,190.836 347.348,191.052 C348.451985,191.244 349.321985,191.532 349.958,191.916 C350.593982,192.3 350.911982,192.876 350.912,193.644 L350.912,193.644 Z" id="Text" fill="#384259"></path>
            </g>
        </g>
    </g>
</svg>