<?xml version="1.0" encoding="UTF-8" standalone="no"?>
<svg width="644px" height="155px" viewBox="0 0 644 155" version="1.1" xmlns="http://www.w3.org/2000/svg" xmlns:xlink="http://www.w3.org/1999/xlink">
    <!-- Generator: Sketch 39.1 (31720) - http://www.bohemiancoding.com/sketch -->
    <title>V2-Logo+Text</title>
    <desc>Created with Sketch.</desc>
    <defs></defs>
    <g id="Page1" stroke="none" stroke-width="1" fill="none" fill-rule="evenodd">
        <g id="V2" transform="translate(-21.000000, -37.000000)">
            <g id="V2-Logo+Text" transform="translate(21.000000, 41.000000)">
                <g id="Logo">
                    <g id="Group" transform="translate(66.000000, 0.000000)">
                        <path d="M14,9 L14,141.492497" id="Path-2" stroke="#384259" stroke-width="10" stroke-linecap="round" stroke-linejoin="round"></path>
                        <path d="M14.1074219,140.44336 L14.1074219,117.91211 C14.1074219,117.91211 6.42187511,60.7539062 74.6523422,56.40625" id="Path-3" stroke="#384259" stroke-width="10" stroke-linecap="round" stroke-linejoin="round"></path>
                        <path d="M14.7997345,146.59 C6.62816003,146.59 0,139.96919 0,131.795 C0,123.62081 6.62816003,117 14.7997345,117 C22.9618401,117 29.5900002,123.62081 29.5900002,131.795 C29.5900002,139.96919 22.9618401,146.59 14.7997345,146.59 Z" id="Fill-14" stroke="#7AC7C4" stroke-width="8" fill="#FFFFFF"></path>
                        <path d="M29.5900002,14.7950001 C29.5900002,22.9691903 22.9618401,29.5900002 14.7997345,29.5900002 C6.62816003,29.5900002 0,22.9691903 0,14.7950001 C0,6.62080989 6.62816003,0 14.7997345,0 C22.9618401,0 29.5900002,6.62080989 29.5900002,14.7950001" id="Fill-14" stroke="#7AC7C4" stroke-width="8" fill="#FFFFFF"></path>
                        <path d="M84.5900002,56.7950001 C84.5900002,64.9691903 77.9618401,71.5900002 69.7997345,71.5900002 C61.62816,71.5900002 55,64.9691903 55,56.7950001 C55,48.6208099 61.62816,42 69.7997345,42 C77.9618401,42 84.5900002,48.6208099 84.5900002,56.7950001" id="Fill-14" stroke="#7AC7C4" stroke-width="8" fill="#FFFFFF"></path>
                    </g>
                    <path d="M172.741396,24.9269757 C172.741396,23.6617666 172.550704,22.7372045 172.169314,22.1532619 C171.787924,21.5693192 170.92981,21.2773523 169.594946,21.2773523 L153.862696,21.2773523 C152.241789,21.2773523 151.026127,21.0827076 150.215674,20.6934125 C149.405221,20.3041174 149,19.5742 149,18.5036385 C149,17.1411056 149.595913,16.2165436 150.787756,15.7299247 C151.979599,15.2433058 153.671991,15 155.864982,15 L170.167028,15 C174.457663,15 177.151188,16.0218843 178.247683,18.0656837 C179.344179,20.109483 179.892419,23.0778137 179.892419,26.9707648 L179.892419,61.8611645 C179.892419,64.3915828 180.488331,66.3866903 181.680174,67.8465469 C182.872017,69.3064036 184.42139,70.036321 186.328339,70.036321 L190.618953,70.036321 C192.907292,70.036321 194.051444,71.0582053 194.051444,73.1020046 C194.051444,75.145804 192.907292,76.1676883 190.618953,76.1676883 L186.328339,76.1676883 C184.42139,76.1676883 182.872017,76.8976057 181.680174,78.3574623 C180.488331,79.817319 179.892419,81.8124265 179.892419,84.3428447 L179.892419,119.379229 C179.892419,123.272181 179.344179,126.216181 178.247683,128.211318 C177.151188,130.206456 174.457663,131.204009 170.167028,131.204009 L155.864982,131.204009 C153.671991,131.204009 151.979599,130.985034 150.787756,130.547077 C149.595913,130.10912 149,129.208889 149,127.846356 C149,126.775794 149.405221,126.045877 150.215674,125.656582 C151.026127,125.267287 152.241789,125.072642 153.862696,125.072642 L169.594946,125.072642 C170.92981,125.072642 171.787924,124.780675 172.169314,124.196732 C172.550704,123.61279 172.741396,122.688228 172.741396,121.423019 L172.741396,84.3428447 C172.741396,81.7151027 173.313472,79.4280283 174.457641,77.4815527 C175.601811,75.5350772 177.270366,74.0752424 179.463357,73.1020046 C174.982027,71.1555291 172.741396,67.457281 172.741396,62.0071495 L172.741396,24.9269757 Z" id="}" fill="#F73859"></path>
                    <path d="M21.3100487,121.423022 C21.3100487,122.688231 21.4769042,123.612793 21.8106203,124.196736 C22.1443364,124.780678 22.978614,125.072645 24.3134783,125.072645 L40.1887495,125.072645 C41.8096562,125.072645 43.0253179,125.26729 43.8357712,125.656585 C44.6462246,126.04588 45.0514452,126.775798 45.0514452,127.846359 C45.0514452,129.208892 44.4555325,130.109124 43.2636894,130.547081 C42.0718463,130.985038 40.3794544,131.204013 38.186463,131.204013 L23.884417,131.204013 C19.5937817,131.204013 16.9002566,130.206459 15.8037609,128.211322 C14.7072652,126.216184 14.1590256,123.272184 14.1590256,119.379233 L14.1590256,84.3428469 C14.1590256,81.8124286 13.563113,79.817321 12.3712699,78.3574643 C11.1794267,76.8976076 9.6300539,76.1676902 7.72310489,76.1676902 L3.43249106,76.1676902 C1.14415225,76.1676902 0,75.1458058 0,73.1020064 C0,71.058207 1.14415225,70.0363227 3.43249106,70.0363227 L7.72310489,70.0363227 C9.6300539,70.0363227 11.1794267,69.3064053 12.3712699,67.8465486 C13.563113,66.3866918 14.1590256,64.3915843 14.1590256,61.861166 L14.1590256,26.9707651 C14.1590256,23.0778139 14.7072652,20.1094831 15.8037609,18.0656838 C16.9002566,16.0218844 19.5937817,15 23.884417,15 L38.186463,15 C40.3794544,15 42.0718463,15.2189752 43.2636894,15.6569322 C44.4555325,16.0948892 45.0514452,16.9951207 45.0514452,18.3576536 C45.0514452,20.3041292 43.4305628,21.2773525 40.1887495,21.2773525 L24.3134783,21.2773525 C22.978614,21.2773525 22.1443364,21.5693194 21.8106203,22.1532621 C21.4769042,22.7372048 21.3100487,23.6617668 21.3100487,24.926976 L21.3100487,62.0071509 C21.3100487,67.4572826 19.0217442,71.1555308 14.4450665,73.1020064 C16.6380579,74.0752442 18.3304498,75.535079 19.5222929,77.4815546 C20.714136,79.4280303 21.3100487,81.7151048 21.3100487,84.3428469 L21.3100487,121.423022 Z" id="{" fill="#F73859"></path>
                </g>
                <path d="M227.049441,76.5715521 L226.349346,86.0061288 L226.349346,86.3555575 C226.349346,86.675867 226.487906,86.9524986 226.765028,87.1854509 C227.042149,87.4184065 227.326563,87.5348823 227.618269,87.5348796 C228.405876,87.5348796 228.843436,87.0398558 228.930948,86.0498074 C229.047412,84.4482586 229.164094,82.8685499 229.280995,81.3106797 C229.397545,79.7528103 229.514227,78.1731008 229.631043,76.5715521 L232.868984,76.5715521 C233.919127,76.5715521 234.444199,76.1347661 234.444199,75.2611942 C234.444199,74.4167376 233.919127,73.994511 232.868984,73.994515 L229.806067,73.994515 C229.864409,73.120943 229.915457,72.3347283 229.959213,71.6358708 C230.002969,70.9370133 230.054017,70.1507985 230.112359,69.2772266 L233.744104,69.2772266 C234.794247,69.2772266 235.319318,68.8404407 235.319318,67.9668687 C235.319318,67.1224155 234.794247,66.7001895 233.744104,66.7001895 L230.243627,66.7001895 L230.943722,57.4403272 C230.943745,56.3337983 230.520771,55.7805352 229.674799,55.7805405 C228.858022,55.7805405 228.435046,56.2610051 228.405876,57.2219342 C228.289194,58.8234303 228.172511,60.4031404 228.055828,61.9610618 C227.939146,63.5189313 227.822463,65.0986414 227.705781,66.7001895 L224.555352,66.7001895 L225.167935,57.4403272 C225.167935,56.3337983 224.759546,55.7805352 223.942768,55.7805405 C223.12599,55.7805405 222.68843,56.2610051 222.630089,57.2219342 C222.513441,58.8234303 222.396759,60.4031404 222.280042,61.9610618 C222.163385,63.5189313 222.046703,65.0986414 221.929994,66.7001895 L218.779565,66.7001895 C217.729422,66.7001735 217.20435,67.1223995 217.20435,67.9668687 C217.20435,68.8404407 217.729422,69.2772266 218.779565,69.2772266 L221.75497,69.2772266 C221.696629,70.1507985 221.64558,70.9370133 221.601824,71.6358708 C221.558068,72.3347283 221.507019,73.120943 221.448678,73.994515 L217.904445,73.994515 C216.854302,73.994515 216.329231,74.4167416 216.329231,75.2611942 C216.329231,76.1347661 216.854302,76.5715521 217.904445,76.5715521 L221.31741,76.5715521 L220.617315,85.875093 L220.617315,86.2245218 C220.617315,86.6030705 220.74129,86.9161006 220.989241,87.1636116 C221.237191,87.4111232 221.53619,87.5348796 221.886238,87.5348796 C222.644674,87.5348796 223.082234,87.0398558 223.198917,86.0498074 C223.3156,84.4482586 223.424989,82.8685499 223.527086,81.3106797 C223.629183,79.7528103 223.738573,78.1731008 223.855256,76.5715521 L227.049441,76.5715521 Z M224.336572,69.2772266 L227.530757,69.2772266 C227.472395,70.1507985 227.421347,70.9370133 227.377611,71.6358708 C227.334245,72.3347283 227.283197,73.120943 227.224465,73.994515 L224.03028,73.994515 C224.088622,73.120943 224.13967,72.3347283 224.183426,71.6358708 C224.227182,70.9370133 224.27823,70.1507985 224.336572,69.2772266 L224.336572,69.2772266 Z M249.209405,58.2702205 C249.151063,58.2702205 249.107307,58.2775012 249.078137,58.2920598 C249.048967,58.3066184 249.005211,58.3138991 248.946869,58.3138991 C248.917699,57.9062331 248.873943,57.5568043 248.815601,57.2656128 C248.757328,56.9744213 248.43645,56.8288268 247.85297,56.8288268 C247.357085,57.0324799 246.68616,57.3527887 245.840196,57.7897559 C244.994248,58.2265419 244.155591,58.6851672 243.324228,59.1656317 C242.492865,59.6460269 241.749013,60.0973715 241.092674,60.5196682 C240.43634,60.9418075 240.049829,61.240277 239.933141,61.4150794 C239.933141,62.1139156 240.239433,62.5798202 240.852016,62.8127945 C241.289571,62.8127945 241.756302,62.7254373 242.252207,62.5507229 C242.748109,62.3760511 243.236718,62.1649375 243.718032,61.9173832 C244.199347,61.6698703 244.680663,61.4005207 245.161978,61.1093292 C245.643294,60.8181377 246.102732,60.5415075 246.540291,60.2794359 L246.540291,82.1187338 L241.858403,82.1187338 C241.099967,82.1769717 240.538432,82.3080075 240.173799,82.5118411 C239.809168,82.7156741 239.626852,83.0796622 239.626849,83.603806 C239.685191,83.9241155 239.882093,84.1425085 240.217555,84.258985 C240.553017,84.3754614 240.968699,84.4336993 241.4646,84.4336993 L254.853924,84.4336993 C255.349825,84.3754614 255.699873,84.2444256 255.904067,84.040592 C256.108225,83.8367583 256.210323,83.5164488 256.210359,83.0796629 C256.122847,82.7011148 255.882189,82.4536032 255.488385,82.3371267 C255.094606,82.2206503 254.605998,82.147853 254.022561,82.1187338 L249.253161,82.1187338 L249.253161,60.2357573 L249.253161,59.2529889 C249.253161,58.9181188 249.238575,58.5905293 249.209405,58.2702205 L249.209405,58.2702205 Z M278.326566,70.5875845 C278.326608,68.5492585 278.122414,66.6783582 277.713983,64.9748849 C277.305594,63.2714197 276.714888,61.8081868 275.941867,60.5851861 C275.168845,59.3621854 274.220798,58.4085369 273.097729,57.7242381 C271.97466,57.0399392 270.713029,56.6977911 269.312838,56.6977911 C267.970989,56.6977911 266.745822,57.0326612 265.637338,57.7023988 C264.528853,58.3721363 263.580807,59.3257874 262.7932,60.5633468 C262.005593,61.8009061 261.400301,63.3005383 260.977328,65.0622421 C260.554354,66.8239379 260.342866,68.7967541 260.342866,70.9806919 C260.342866,73.0190259 260.532476,74.8972062 260.911694,76.6152307 C261.29091,78.3332552 261.852444,79.8183282 262.596298,81.0704475 C263.34015,82.3225674 264.27361,83.2980558 265.39668,83.9969134 C266.51975,84.6957709 267.825136,85.0451997 269.312838,85.0451997 C270.713029,85.0451997 271.967366,84.7103302 273.075851,84.040592 C274.184336,83.3708537 275.125089,82.4099246 275.898111,81.1578047 C276.671093,79.9056854 277.269091,78.3842145 277.692105,76.5933914 C278.114973,74.8025716 278.326461,72.8006356 278.326566,70.5875845 L278.326566,70.5875845 Z M269.444106,59.0564352 C270.435908,59.0562833 271.311027,59.3547528 272.069464,59.9518464 C272.827901,60.5487668 273.462362,61.3713795 273.972848,62.4196871 C274.483343,63.4679734 274.869855,64.7128134 275.132381,66.154207 C275.394917,67.5956007 275.526185,69.1607508 275.526185,70.8496561 L275.526185,70.8933347 C275.526185,72.5822399 275.402209,74.15467 275.154259,75.610623 C274.906309,77.066576 274.52709,78.3332552 274.016604,79.4106608 C273.506118,80.4880657 272.864363,81.332519 272.091342,81.9440194 C271.31832,82.5555197 270.406737,82.8612699 269.356594,82.8612699 C268.218939,82.8612699 267.256308,82.5336804 266.468701,81.8785015 C265.681094,81.2233225 265.039339,80.3424713 264.543439,79.2359464 C264.047538,78.1294262 263.682904,76.8481877 263.449539,75.39223 C263.216175,73.9362817 263.099492,72.4075309 263.099492,70.8059775 L263.099492,70.5875845 C263.099492,69.5393182 263.165126,68.4764719 263.296394,67.399047 C263.427649,66.3216501 263.631844,65.324323 263.908977,64.4070632 C264.186098,63.4898127 264.536146,62.703598 264.95912,62.048419 C265.382095,61.3932401 265.899873,60.9637348 266.512457,60.7599005 C266.891675,60.2357573 267.321942,59.8208106 267.803258,59.5150605 C268.284573,59.2093103 268.831523,59.0564352 269.444106,59.0564352 L269.444106,59.0564352 Z M300.136482,70.5875845 C300.136524,68.5492585 299.93233,66.6783582 299.523899,64.9748849 C299.115509,63.2714197 298.524804,61.8081868 297.751782,60.5851861 C296.978761,59.3621854 296.030714,58.4085369 294.907645,57.7242381 C293.784576,57.0399392 292.522945,56.6977911 291.122754,56.6977911 C289.780905,56.6977911 288.555738,57.0326612 287.447253,57.7023988 C286.338769,58.3721363 285.390723,59.3257874 284.603116,60.5633468 C283.815509,61.8009061 283.210217,63.3005383 282.787244,65.0622421 C282.36427,66.8239379 282.152782,68.7967541 282.152782,70.9806919 C282.152782,73.0190259 282.342392,74.8972062 282.72161,76.6152307 C283.100825,78.3332552 283.66236,79.8183282 284.406214,81.0704475 C285.150065,82.3225674 286.083526,83.2980558 287.206596,83.9969134 C288.329666,84.6957709 289.635052,85.0451997 291.122754,85.0451997 C292.522945,85.0451997 293.777282,84.7103302 294.885767,84.040592 C295.994252,83.3708537 296.935005,82.4099246 297.708026,81.1578047 C298.481009,79.9056854 299.079007,78.3842145 299.502021,76.5933914 C299.924889,74.8025716 300.136377,72.8006356 300.136482,70.5875845 L300.136482,70.5875845 Z M291.254022,59.0564352 C292.245823,59.0562833 293.120943,59.3547528 293.87938,59.9518464 C294.637817,60.5487668 295.272278,61.3713795 295.782764,62.4196871 C296.293259,63.4679734 296.679771,64.7128134 296.942297,66.154207 C297.204833,67.5956007 297.336101,69.1607508 297.336101,70.8496561 L297.336101,70.8933347 C297.336101,72.5822399 297.212125,74.15467 296.964175,75.610623 C296.716225,77.066576 296.337006,78.3332552 295.82652,79.4106608 C295.316034,80.4880657 294.674279,81.332519 293.901258,81.9440194 C293.128236,82.5555197 292.216653,82.8612699 291.16651,82.8612699 C290.028855,82.8612699 289.066224,82.5336804 288.278617,81.8785015 C287.491009,81.2233225 286.849255,80.3424713 286.353354,79.2359464 C285.857454,78.1294262 285.49282,76.8481877 285.259455,75.39223 C285.02609,73.9362817 284.909408,72.4075309 284.909408,70.8059775 L284.909408,70.5875845 C284.909408,69.5393182 284.975042,68.4764719 285.106309,67.399047 C285.237565,66.3216501 285.44176,65.324323 285.718893,64.4070632 C285.996014,63.4898127 286.346062,62.703598 286.769036,62.048419 C287.192011,61.3932401 287.709789,60.9637348 288.322373,60.7599005 C288.701591,60.2357573 289.131858,59.8208106 289.613174,59.5150605 C290.094489,59.2093103 290.641439,59.0564352 291.254022,59.0564352 L291.254022,59.0564352 Z M309.266893,60.5415075 L309.266893,82.1624124 L308.785578,82.1624124 C308.114653,82.1624124 307.538533,82.206091 307.057217,82.2934481 C306.575902,82.3808053 306.306073,82.6719962 306.247732,83.1670201 C306.247732,83.7785204 306.444634,84.1352292 306.838437,84.2371457 C307.232241,84.3390622 307.720849,84.40458 308.304262,84.4336993 L317.31799,84.4336993 C320.847637,84.2881042 323.582385,83.0942222 325.522233,80.8520545 C327.462069,78.6098861 328.431994,75.4359079 328.432005,71.3301206 L328.432005,71.0243704 C328.432005,69.0733936 328.162175,67.3044105 327.622519,65.7174211 C327.082863,64.1304316 326.30984,62.7763952 325.303453,61.6553117 C324.297066,60.5342268 323.079191,59.6752162 321.64983,59.0782745 C320.22047,58.4813328 318.616083,58.1828633 316.836675,58.1828633 C316.165766,58.1828633 315.509427,58.190144 314.867656,58.2047026 C314.225902,58.2192612 313.569563,58.2265419 312.898638,58.2265419 L308.829334,58.2265419 C308.070897,58.2265419 307.451021,58.2920598 306.969705,58.4230956 C306.48839,58.5541314 306.247732,58.8234836 306.247732,59.2311496 C306.247729,59.5514584 306.320656,59.7989713 306.466512,59.9736857 C306.612365,60.1485174 306.809267,60.2722725 307.057217,60.3449538 C307.305168,60.4170192 307.589581,60.4679785 307.910459,60.4978289 C308.231336,60.5276793 308.566798,60.5422379 308.916846,60.5415075 L309.266893,60.5415075 Z M325.631623,70.8059775 L325.631623,71.1990848 C325.631623,73.1500617 325.398257,74.8171283 324.931528,76.200284 C324.464798,77.5834398 323.779287,78.7190833 322.874997,79.6072145 C321.970708,80.4953451 320.862223,81.1432447 319.549544,81.550912 C318.236865,81.9585787 316.734577,82.1624124 315.04268,82.1624124 L311.979763,82.1624124 L311.979763,60.5415075 C312.475664,60.5407317 312.978857,60.533451 313.489344,60.5196682 C313.99983,60.5058107 314.503024,60.49853 314.998924,60.4978289 C318.645255,60.4978289 321.328953,61.4005207 323.050021,63.2059018 C324.77109,65.0112842 325.631623,67.5446428 325.631623,70.8059775 L325.631623,70.8059775 Z M336.133054,67.4864042 C336.133054,68.0105473 336.249736,68.4618933 336.483101,68.8404407 C336.716456,69.218988 336.949821,69.4956196 337.183197,69.670334 C337.679088,69.67039 338.123941,69.5247942 338.517754,69.233548 C338.911553,68.9423498 339.356406,68.6220397 339.852311,68.2726189 C340.348203,67.9231902 340.931615,67.6101607 341.602549,67.3335291 C342.273474,67.0568976 343.134008,66.9185824 344.184151,66.9185824 L344.227907,66.9185824 C346.036487,66.9185824 347.276238,67.3116898 347.947163,68.0979045 C348.618089,68.8841193 348.982721,69.9760842 349.041062,71.3737992 L349.041062,72.9025501 C348.457648,72.8443115 347.903406,72.7787936 347.378336,72.7059964 C346.853271,72.6330619 346.342785,72.5966626 345.846877,72.5967999 L344.052883,72.5967999 C343.907115,72.6259185 343.746677,72.6404785 343.571567,72.6404785 C343.396566,72.6404785 343.236128,72.6550385 343.090252,72.6841571 C340.2607,72.8879901 338.058317,73.557729 336.483101,74.6933725 C334.907887,75.829016 334.12028,77.3868861 334.12028,79.3669822 C334.12028,80.2405541 334.302596,81.0194895 334.667229,81.7037871 C335.031863,82.3880853 335.527763,82.9704664 336.154932,83.4509309 C336.7821,83.9313955 337.525952,84.2953836 338.386486,84.5428958 C339.24702,84.7904081 340.158602,84.9141639 341.121233,84.9141639 C342.608937,84.9141639 344.001836,84.6739316 345.299928,84.1934671 C346.598009,83.7130025 347.874224,82.9777464 349.128574,81.987698 C349.157606,82.3371267 349.194069,82.6647162 349.237964,82.9704664 C349.28172,83.2762165 349.347354,83.5382881 349.434866,83.7566811 C349.522378,83.9750741 349.660938,84.1425085 349.850548,84.258985 C350.040157,84.3754614 350.2954,84.4336993 350.616277,84.4336993 L352.672807,84.4336993 C353.460415,84.3754614 354.10946,84.2662649 354.619948,84.1061099 C355.130435,83.9459548 355.429433,83.6766039 355.516945,83.2980558 C355.517132,82.8903892 355.393157,82.6210376 355.145019,82.4900018 C354.897068,82.3589674 354.612654,82.176973 354.291778,81.9440194 C353.941728,81.9440194 353.577095,81.9731387 353.197879,82.0313766 C352.818661,82.0896145 352.483198,82.1187338 352.191492,82.1187338 C351.958197,82.0022573 351.819635,81.8348229 351.77581,81.6164299 C351.732054,81.3980369 351.710176,81.0850074 351.710176,80.6773401 L351.710176,71.6795494 C351.681006,70.5147966 351.549738,69.4956289 351.316372,68.6220477 C351.083064,67.7484931 350.674675,67.0132363 350.091206,66.4162786 C349.50781,65.8193862 348.734788,65.3680403 347.77214,65.0622421 C346.809508,64.756492 345.584342,64.6036169 344.096639,64.6036169 C343.804933,64.6036169 343.447592,64.6254562 343.024618,64.6691348 C342.601644,64.7128134 342.185962,64.7783313 341.777573,64.8656885 L341.733817,64.8656885 C340.275285,65.0695215 339.035532,65.3971109 338.01456,65.8484569 C336.993588,66.2998028 336.366419,66.8457852 336.133054,67.4864042 L336.133054,67.4864042 Z M349.041062,75.1301584 L349.041062,79.0612321 C348.078446,80.1968755 346.933499,81.0704475 345.606219,81.6819478 C344.27896,82.2934481 342.871477,82.5991983 341.383769,82.5991983 C340.07109,82.5991983 338.991776,82.2788888 338.145828,81.6382692 C337.29988,80.9976509 336.876905,80.1823169 336.876905,79.1922678 C336.876905,78.4934103 337.088392,77.8673507 337.511367,77.3140882 C337.934341,76.7608258 338.510461,76.3022005 339.239727,75.9382125 C339.968993,75.5742537 340.822235,75.2976228 341.799451,75.1083191 C342.776668,74.9190741 343.834103,74.8244369 344.971758,74.8244083 L346.196925,74.8244083 C346.692826,74.8243363 347.181434,74.8607349 347.66275,74.9336048 C348.144065,75.0064026 348.603503,75.0719205 349.041062,75.1301584 L349.041062,75.1301584 Z M369.606364,83.822199 C369.285487,84.4336993 368.979195,85.067039 368.687489,85.7222179 C368.395783,86.3773968 368.067613,87.0107365 367.70298,87.6222368 C367.338347,88.2337372 366.915373,88.7797196 366.434057,89.2601842 C365.952742,89.7406487 365.362036,90.0973575 364.661941,90.3303098 L364.661941,90.2866312 C364.253552,90.2283826 363.735773,90.0900668 363.108604,89.8716845 C362.481435,89.6532915 361.846973,89.544095 361.20522,89.544095 C360.913514,89.5441017 360.599929,89.7260954 360.264467,90.0900775 C359.929005,90.4540656 359.761274,90.8253336 359.761273,91.2038817 C359.761272,91.40773 359.92171,91.5970037 360.242589,91.7717034 C360.563466,91.9464425 360.95727,92.0920376 361.424,92.2084894 C361.890729,92.3249659 362.393923,92.412323 362.93358,92.4705609 C363.473237,92.5287989 363.97643,92.5579181 364.443161,92.5579181 C365.259939,92.5579101 366.018376,92.2885586 366.718471,91.7498641 C367.418564,91.2111617 368.03844,90.6215006 368.578099,89.980881 C369.117757,89.340262 369.548023,88.750601 369.8689,88.2118979 C370.189778,87.6731947 370.364802,87.4038438 370.393972,87.4038438 C371.531627,85.0451997 372.698452,82.5919183 373.894449,80.0440005 C375.090445,77.4960839 376.286441,74.9263268 377.482438,72.3347283 C377.978339,71.2573234 378.394021,70.3400729 378.729482,69.5829768 C379.064944,68.8258807 379.43687,68.1270232 379.845259,67.4864042 C380.574526,67.4864682 381.099598,67.384551 381.420474,67.180654 C381.741187,66.976837 381.901627,66.6128483 381.90179,66.0886891 C381.901766,65.5063074 381.405866,65.1859986 380.414087,65.12776 L375.207128,65.12776 C374.62375,65.2151172 374.215361,65.360713 373.981961,65.564546 C373.74864,65.768379 373.631958,66.0886891 373.631913,66.5254751 C373.748595,67.166094 374.317423,67.4864042 375.338395,67.4864042 L377.176146,67.4864042 C376.155173,69.670334 375.126908,71.9125023 374.091351,74.2129079 C373.055793,76.5133149 372.042113,78.7554826 371.050311,80.9394117 C370.000167,78.7554819 368.942731,76.5497128 367.878004,74.3221044 C366.813276,72.094496 365.726669,69.8159297 364.618185,67.4864042 L366.280911,67.4864042 C366.747642,67.4864042 367.141446,67.399047 367.462322,67.2243326 C367.783166,67.0496182 367.943605,66.7001895 367.943638,66.1760463 C367.885297,65.9430934 367.746736,65.7174211 367.527956,65.4990281 C367.309176,65.2808004 366.937251,65.1570439 366.412179,65.12776 L360.98644,65.12776 C360.432198,65.1277973 359.987346,65.2005946 359.651883,65.346153 C359.316421,65.4916768 359.14869,65.8119869 359.14869,66.3070821 C359.14869,66.5982723 359.192446,66.794826 359.279958,66.8967432 C359.367468,66.9986603 359.48415,67.0860175 359.630005,67.1588147 C359.775858,67.2316119 359.950882,67.3044105 360.155077,67.3772077 C360.359271,67.4500049 360.578051,67.60288 360.811416,67.835833 L361.073952,67.835833 C361.219806,67.8649516 361.482341,67.8795116 361.861559,67.8795116 C363.174239,70.5293459 364.472333,73.1864609 365.75584,75.8508553 C367.039344,78.5152496 368.322852,81.1723646 369.606364,83.822199 L369.606364,83.822199 Z M403.298455,79.1485893 C403.29842,79.730971 403.137982,80.2405548 402.817139,80.6773401 C402.496302,81.1141261 402.066035,81.4853941 401.526338,81.7911443 C400.986729,82.0968945 400.35956,82.3298474 399.644832,82.4900018 C398.930146,82.6501542 398.179002,82.7302314 397.3914,82.7302341 C396.545456,82.7302341 395.743265,82.6428769 394.984822,82.4681625 C394.226386,82.2934481 393.540875,82.0459359 392.928292,81.7256264 C392.315716,81.4053163 391.819815,81.0267689 391.440589,80.5899829 C391.061378,80.1531963 390.828013,79.6581724 390.740494,79.1049107 C390.594641,78.6098868 390.397739,78.2386187 390.149788,77.9911065 C389.901837,77.7435942 389.559082,77.6198384 389.121523,77.6198384 C388.80065,77.6198384 388.574578,77.7581542 388.443306,78.0347851 C388.312038,78.3114159 388.246404,78.6681247 388.246404,79.1049107 L388.246404,82.8612699 L388.246404,82.9486271 C388.246404,83.2980558 388.31933,83.5164488 388.465184,83.603806 C388.611038,83.6911632 388.807939,83.7130025 389.055889,83.6693239 C389.303839,83.6256453 389.595546,83.5528474 389.931009,83.4509309 C390.266471,83.3490144 390.623811,83.2689366 391.00303,83.2106987 C391.819808,83.7930797 392.782439,84.2298657 393.890923,84.5210565 C394.999407,84.8122474 396.195403,84.9578425 397.478912,84.9578425 C398.704079,84.9578425 399.841734,84.8268067 400.891877,84.5647351 C401.94202,84.3026635 402.860895,83.9168362 403.648503,83.4072523 C404.43611,82.8976685 405.048693,82.2716088 405.486253,81.5290727 C405.923813,80.7865366 406.142592,79.934804 406.142592,78.9738749 C406.142592,77.7799975 405.880057,76.8481877 405.354985,76.1784447 C404.829914,75.5087098 404.10794,74.9772867 403.189065,74.584176 C402.27019,74.1910813 401.183583,73.8780511 399.929246,73.6450862 C398.674909,73.4121659 397.333058,73.1646536 395.903697,72.9025501 C394.386825,72.6113599 393.263755,72.2619311 392.534488,71.8542638 C391.805225,71.4465964 391.440593,70.864216 391.440589,70.1071199 C391.440589,69.5829768 391.586442,69.1170722 391.878149,68.7094049 C392.169856,68.3017375 392.556366,67.9668687 393.037682,67.7047972 C393.518997,67.4427256 394.080532,67.2388926 394.722286,67.0932968 C395.364029,66.9477011 396.034955,66.8749039 396.735061,66.8749039 C397.63935,66.8749039 398.405079,66.9404217 399.032249,67.0714575 C399.659418,67.2024933 400.191782,67.3917677 400.629341,67.6392793 C401.066901,67.8867909 401.416949,68.1852617 401.679484,68.5346905 C401.94202,68.8841193 402.1608,69.2917866 402.335824,69.7576912 C402.423301,70.0488814 402.525399,70.3400729 402.642116,70.6312631 C402.758798,70.9224533 403.021333,71.0971677 403.429723,71.1554062 L403.692259,71.1554062 C404.18816,71.1553929 404.530914,70.92244 404.720524,70.4565487 C404.910133,69.9906575 405.004937,69.2626813 405.004937,68.2726189 C405.005261,68.1270232 404.997967,67.9377501 404.983059,67.7047972 C404.968474,67.4718442 404.946596,67.2461719 404.917426,67.0277789 C404.888255,66.809386 404.829914,66.6346716 404.742402,66.5036358 C404.65489,66.3726 404.552792,66.3216421 404.43611,66.3507607 L403.867282,66.5254751 C403.633954,66.4672365 403.232858,66.3362007 402.663993,66.1323677 C402.095166,65.9285347 401.460705,65.7101417 400.760609,65.4771888 C400.060514,65.2442358 399.345833,65.0404028 398.616567,64.8656885 C397.887301,64.6909741 397.260132,64.6036169 396.735061,64.6036169 C395.568235,64.6036169 394.496214,64.7346527 393.518997,64.9967242 C392.541781,65.2587758 391.695832,65.6373232 390.981152,66.1323677 C390.266471,66.6273923 389.712229,67.2170533 389.318425,67.9013509 C388.924622,68.5856484 388.72772,69.3500238 388.72772,70.1944771 C388.72772,71.3301206 388.990255,72.2255318 389.515327,72.8807108 C390.040399,73.5358897 390.762372,74.0454735 391.681247,74.4094616 C392.600124,74.7734497 393.679438,75.0646406 394.919188,75.2830335 C396.158941,75.5014265 397.508082,75.7416588 398.966615,76.0037304 C400.308446,76.2366826 401.365882,76.5861114 402.138922,77.0520167 C402.911922,77.5179219 403.298434,78.2167794 403.298455,79.1485893 L403.298455,79.1485893 Z M412.443451,69.5829768 L412.443451,69.8450484 C412.41428,70.0488814 412.399695,70.2381557 412.399695,70.4128701 L412.399695,70.9370133 L412.399695,71.3301206 C412.399695,73.1937403 412.625768,74.9554441 413.077912,76.6152307 C413.530058,78.275016 414.215567,79.7236897 415.134443,80.961251 C416.053318,82.198811 417.205558,83.1815794 418.591164,83.9095562 C419.976769,84.637533 421.588447,85.0015211 423.426197,85.0015211 C425.059754,85.0015211 426.562041,84.6957709 427.933061,84.0842706 C429.304082,83.4727702 430.478199,82.5919183 431.455416,81.4417155 C432.43259,80.2915121 433.191028,78.8792384 433.730726,77.2048917 C434.270294,75.5305458 434.540123,73.6305269 434.540212,71.504835 L434.540212,71.3737992 C434.540372,69.5684168 434.328886,67.8649516 433.90575,66.2634035 C433.482772,64.6618475 432.855604,63.2495724 432.024244,62.0265797 C431.19288,60.8036004 430.142737,59.8135513 428.873815,59.0564352 C427.604892,58.2993404 426.124481,57.8625545 424.432584,57.7460773 L424.301317,57.7460773 C424.126293,57.688248 423.958561,57.6518501 423.798123,57.6368809 C423.637685,57.6233459 423.469953,57.6160653 423.294929,57.6150416 C420.202843,57.6150416 417.70146,58.6633279 415.790782,60.7599005 C413.880105,62.856473 412.764328,65.7974989 412.443451,69.5829768 L412.443451,69.5829768 Z M415.200076,71.5921922 C415.200075,67.8649516 415.951219,64.9967242 417.453509,62.9875088 C418.955794,60.9782934 420.961276,59.9736857 423.469953,59.9736857 C424.840974,59.9736164 426.036969,60.2720859 427.057942,60.8690969 C428.078915,61.465964 428.932156,62.2740167 429.617666,63.293259 C430.303127,64.3123987 430.813613,65.5062808 431.149125,66.8749039 C431.484516,68.2434923 431.652247,69.6994459 431.652318,71.2427634 L431.652318,71.286442 C431.652318,72.8879901 431.477294,74.3876223 431.127247,75.7853374 C430.777199,77.1830524 430.25942,78.3914938 429.57391,79.4106608 C428.8884,80.4298285 428.035159,81.2378825 427.014186,81.8348229 C425.993213,82.4317633 424.811802,82.7302334 423.469953,82.7302341 C422.128104,82.7302341 420.9394,82.4390439 419.903842,81.8566622 C418.868288,81.2742805 418.000461,80.4735071 417.300363,79.4543394 C416.600267,78.4351724 416.075196,77.2558503 415.725148,75.9163732 C415.3751,74.576896 415.200076,73.135503 415.200076,71.5921922 L415.200076,71.5921922 Z M458.868526,59.7989713 C458.926868,59.914806 458.977916,60.0312831 459.021672,60.1484001 C459.065088,60.2647626 459.203648,60.3229999 459.437354,60.3231145 C459.670526,60.2648773 459.925768,60.1338415 460.203083,59.9300071 C460.480022,59.7261728 460.647752,59.5077798 460.706277,59.2748282 C460.531253,58.3139871 459.97701,57.6296882 459.04355,57.2219342 C458.110089,56.8146921 456.79741,56.5817405 455.105514,56.5230767 L454.71171,56.5230767 C452.057182,56.5230767 450.037114,57.0253805 448.651509,58.0299882 C447.265901,59.0345879 446.573098,60.7307725 446.573101,63.1185446 L446.573101,65.3024744 L443.028868,65.3024744 C442.445456,65.3023838 442.022481,65.4188596 441.759945,65.6519032 C441.497409,65.8848561 441.366142,66.1906063 441.366142,66.5691537 C441.366142,66.8603439 441.475531,67.1224155 441.694311,67.3553684 C441.913091,67.5881294 442.285017,67.7046052 442.810088,67.7047972 L446.573101,67.7047972 L446.573101,80.6773401 L446.573101,81.2014833 C446.573101,81.5217921 446.529345,81.7547444 446.441833,81.9003408 C446.354321,82.0459359 446.106371,82.1187338 445.697982,82.1187338 L442.635064,82.1187338 C442.139163,82.1187338 441.789115,82.206091 441.584921,82.3808053 C441.380727,82.5555197 441.27863,82.8612699 441.27863,83.2980558 C441.27863,84.0551513 441.803701,84.4336993 442.853844,84.4336993 L455.411805,84.4336993 C455.936877,84.4336993 456.396314,84.3754614 456.790118,84.258985 C457.183922,84.1425085 457.424579,83.9241155 457.512091,83.603806 C457.512091,83.0505442 457.322482,82.7011155 456.943264,82.5555197 C456.564046,82.4099266 456.053559,82.2643315 455.411805,82.1187338 L451.823816,82.1187338 C451.561281,82.1187338 451.306037,82.1260137 451.058087,82.1405731 C450.810137,82.1551324 450.569479,82.1624124 450.336114,82.1624124 C449.752759,82.1624124 449.431882,82.0604959 449.373483,81.8566622 C449.315093,81.6528285 449.285923,81.2597218 449.285971,80.6773401 L449.285971,67.7047972 L456.593216,67.7047972 C457.089118,67.6174386 457.468335,67.4718429 457.730871,67.2680112 C457.993407,67.0642115 458.124675,66.7293427 458.124675,66.2634035 C458.066536,66.0013319 457.920682,65.8047783 457.687115,65.6737425 C457.45375,65.5427067 457.169336,65.4480702 456.833874,65.3898316 C456.498412,65.331593 456.133779,65.3024744 455.739975,65.3024744 L454.580442,65.3024744 L449.285971,65.3024744 C449.286163,64.9821643 449.278871,64.6472955 449.264093,64.2978667 C449.249483,63.9484379 449.242191,63.6135692 449.242215,63.293259 C449.242185,61.7790668 449.584941,60.6652626 450.27048,59.9518464 C450.955992,59.2384143 452.130111,58.8817048 453.792835,58.8817208 C454.142882,58.8818355 454.558564,58.9182334 455.03988,58.9909173 C455.521195,59.0631374 456.009803,59.1432139 456.505704,59.2311496 C457.001606,59.3185068 457.461043,59.4131446 457.884017,59.5150605 C458.306991,59.6169763 458.635161,59.7116142 458.868526,59.7989713 L458.868526,59.7989713 Z M465.738212,71.068049 C465.738212,73.0190259 466.000748,74.8389676 466.52582,76.5278735 C467.05089,78.2167788 467.809327,79.6945717 468.80113,80.961251 C469.792932,82.2279303 471.010806,83.225258 472.454752,83.9532348 C473.898699,84.6812116 475.539548,85.0451997 477.377298,85.0451997 C478.544107,85.0451997 479.645298,84.8850446 480.680873,84.5647351 C481.716418,84.2444256 482.649879,83.822199 483.481255,83.2980558 C484.312618,82.7739127 485.012713,82.1842517 485.581541,81.5290727 C486.150368,80.8738938 486.536878,80.2114355 486.741074,79.5416966 C486.741162,78.6390054 486.420286,77.9983865 485.778443,77.6198384 C485.340904,77.7363022 484.896053,78.0493324 484.443886,78.5589282 C483.991793,79.0685114 483.561525,79.498018 483.153085,79.8474468 C482.482178,80.6627801 481.701863,81.3397984 480.812141,81.8785015 C479.922436,82.4172039 478.806659,82.6865555 477.46481,82.6865555 L477.421054,82.6865555 C476.108375,82.6865555 474.912378,82.3953653 473.833065,81.8129836 C472.753751,81.2306019 471.834876,80.4371078 471.07644,79.4325001 C470.318003,78.4278924 469.727298,77.2485703 469.304323,75.8945339 C468.881365,74.5404974 468.669878,73.0918244 468.669862,71.5485136 C468.669862,69.9760842 468.844885,68.4910119 469.194933,67.0932968 C469.544978,65.6955818 470.077343,64.4653018 470.792026,63.4024555 C471.506706,62.3396519 472.403703,61.4951986 473.483017,60.8690969 C474.562331,60.2431553 475.831254,59.9301244 477.289786,59.9300071 C479.040025,59.9300071 480.483971,60.3886324 481.621626,61.3058829 C482.759281,62.2231334 483.444791,63.3369376 483.678156,64.6472955 C483.82401,65.142256 483.955278,65.5717627 484.07196,65.935814 C484.188653,66.2997535 484.465774,66.4817472 484.903323,66.4817965 C485.45748,66.4818525 485.822113,66.3144174 485.997222,65.9794926 C486.172246,65.6446398 486.259758,65.1714546 486.259758,64.5599383 L486.259758,64.4289025 C486.259758,63.8465208 486.252465,63.278699 486.23788,62.7254373 C486.223296,62.1722168 486.216002,61.6043951 486.216002,61.021972 L486.216002,60.2357573 C486.214945,59.9736857 486.244116,59.7116142 486.303514,59.4495426 C486.216002,58.5468507 485.822199,58.0955061 485.122103,58.0955061 C484.626191,58.0955061 484.246973,58.2993404 483.984448,58.7070065 C483.721887,59.1146725 483.517693,59.4495426 483.371865,59.7116142 C481.563295,58.3138991 479.492179,57.6150416 477.158518,57.6150416 C475.174922,57.6150416 473.46844,58.0154296 472.039071,58.8162029 C470.609709,59.6169763 469.428298,60.6652626 468.494838,61.9610618 C467.56138,63.2568597 466.868576,64.705534 466.41643,66.3070821 C465.964286,67.9086302 465.738214,69.4956196 465.738212,71.068049 L465.738212,71.068049 Z M492.429349,74.8680869 C492.429349,76.3531591 492.684592,77.7071956 493.195078,78.9301963 C493.705563,80.153197 494.420244,81.2087626 495.33912,82.0968945 C496.257995,82.9850257 497.344602,83.6766039 498.598939,84.1716278 C499.853277,84.6666516 501.224297,84.9141639 502.712,84.9141639 L502.843268,84.9141639 C504.272614,84.9141639 505.614463,84.6666516 506.868816,84.1716278 C508.123153,83.6766039 509.217052,82.9850257 510.150513,82.0968945 C511.083974,81.2087626 511.81324,80.138637 512.338311,78.8865177 C512.863383,77.6343977 513.125919,76.2658019 513.125919,74.7807297 C513.126231,73.557729 512.936623,72.4002462 512.557091,71.3082813 C512.177936,70.2163138 511.638279,69.2408247 510.938121,68.3818154 C510.238025,67.5228035 509.413954,66.8021066 508.465909,66.2197249 C507.517863,65.6373432 506.475013,65.2151172 505.337358,64.9530456 C504.98731,64.8365672 504.57892,64.7783286 504.112191,64.7783313 L504.024679,64.7783313 C503.907997,64.7783313 503.820485,64.7928912 503.762143,64.8220099 C503.645461,64.7934911 503.485021,64.7789311 503.280827,64.7783313 C501.793125,64.7783313 500.385641,65.0112842 499.058377,65.4771888 C497.731113,65.9430934 496.578872,66.605553 495.601656,67.4645649 C494.624439,68.3235768 493.851418,69.3791438 493.28259,70.6312631 C492.713763,71.8833824 492.429349,73.2956574 492.429349,74.8680869 L492.429349,74.8680869 Z M495.22973,74.7807297 C495.22973,73.7033248 495.404754,72.6914377 495.754802,71.7450673 C496.10485,70.7987101 496.608043,69.9760961 497.264383,69.2772266 C497.920722,68.5784077 498.708329,68.0178653 499.627205,67.5956007 C500.54608,67.1734893 501.574345,66.947817 502.712,66.9185824 L502.799512,66.9185824 C503.878828,66.9185824 504.877923,67.1151361 505.796795,67.5082435 C506.71567,67.9013362 507.503278,68.454598 508.159617,69.1680301 C508.815922,69.881425 509.333701,70.7258783 509.712954,71.7013887 C510.092067,72.6768631 510.281677,73.746988 510.281781,74.9117655 C510.281781,76.0182897 510.092172,77.0447367 509.712954,77.9911065 C509.333736,78.9374756 508.808664,79.7528103 508.137739,80.4371078 C507.466811,81.1214054 506.671912,81.6601085 505.753039,82.0532159 C504.834164,82.4463232 503.835069,82.6428769 502.755756,82.6428769 C501.676442,82.6428769 500.677348,82.4463232 499.758472,82.0532159 C498.839597,81.6601085 498.044697,81.1141261 497.373772,80.4152685 C496.702848,79.716411 496.177776,78.8865177 495.798558,77.9255886 C495.419339,76.9646595 495.22973,75.9163732 495.22973,74.7807297 L495.22973,74.7807297 Z M520.826968,65.1714386 C520.710286,65.1429092 520.593602,65.1283492 520.47692,65.12776 L520.083117,65.12776 C519.645557,65.1276507 519.21529,65.1786086 518.792316,65.2806351 C518.369342,65.3824803 517.990124,65.5062354 517.654661,65.6519032 C517.319198,65.7974763 517.056662,65.9576307 516.867053,66.1323677 C516.677444,66.3070821 516.58264,66.4817965 516.58264,66.6565109 C516.58264,66.8894638 516.706615,67.0860175 516.954565,67.2461719 C517.202515,67.4063263 517.443173,67.5009642 517.676539,67.5300828 L518.376634,67.5300828 C518.609999,67.5298242 518.843364,67.5152642 519.076729,67.4864042 L519.076729,81.5072334 C518.98922,81.6237092 518.894415,81.7329064 518.792316,81.8348229 C518.690219,81.9367394 518.595414,82.0459359 518.507902,82.1624124 C517.749466,82.1915276 517.26815,82.3080041 517.063955,82.5118411 C516.859761,82.7156748 516.757664,82.8903892 516.757664,83.0359843 C516.757664,83.3562938 516.874346,83.603806 517.107711,83.7785204 C517.341076,83.9532348 517.457759,84.1716278 517.457759,84.4336993 L522.445939,84.4336993 C523.000181,84.4336993 523.415863,84.3754614 523.692983,84.258985 C523.970074,84.1425085 524.137805,83.8804369 524.196177,83.4727702 C524.196177,83.0359843 524.086787,82.7229548 523.868007,82.5336804 C523.649227,82.3444087 523.291887,82.2206529 522.795986,82.1624124 L521.658331,82.1624124 L521.658331,75.5232658 C521.658331,75.2903222 521.651038,75.0792092 521.636453,74.8899262 C521.621868,74.7006525 521.614575,74.5040988 521.614575,74.3002651 C521.614575,73.5431697 521.636453,72.8079136 521.680209,72.094496 C521.723943,71.3810785 521.774992,70.7040603 521.833355,70.0634413 C522.416763,69.0734163 523.043932,68.3454401 523.714861,67.8795116 C524.385783,67.4136723 525.056707,67.1807193 525.727636,67.180654 C526.719438,67.180654 527.375776,67.5883214 527.696654,68.4036547 C528.017531,69.218988 528.177969,70.2381557 528.177969,71.4611564 L528.177969,82.0750552 C527.944689,82.2206503 527.776958,82.3880853 527.674776,82.577359 C527.572678,82.7666327 527.507044,82.9777464 527.477874,83.2106987 C527.536216,83.5601274 527.652898,83.8513183 527.827922,84.0842706 C528.002946,84.3172229 528.382164,84.4336993 528.965577,84.4336993 L531.459667,84.4336993 C532.568151,84.4336993 533.122393,83.9386755 533.122393,82.9486271 C533.034921,82.4244839 532.611947,82.1624124 531.85347,82.1624124 L530.672059,82.1624124 L530.672059,72.6841571 C530.672059,71.8688237 530.788741,71.1262876 531.022107,70.4565487 C531.255473,69.7868098 531.569057,69.2117087 531.96286,68.7312442 C532.356633,68.2507796 532.808779,67.8722322 533.319295,67.5956007 C533.829722,67.3189691 534.362086,67.180654 534.916388,67.180654 C535.762337,67.180622 536.345749,67.5154908 536.666626,68.1852617 C536.987504,68.8550006 537.162527,69.7722511 537.191698,70.9370133 L537.191698,82.1624124 C537.016674,82.4827218 536.848942,82.7011148 536.688504,82.8175913 C536.528066,82.9340671 536.447846,83.1379001 536.447846,83.4290916 C536.44771,83.9241155 536.571686,84.2153064 536.819772,84.3026635 C537.067722,84.3900207 537.439648,84.4336993 537.935549,84.4336993 L540.210859,84.4336993 C540.67759,84.4336993 541.122441,84.3754614 541.545416,84.258985 C541.968391,84.1425085 542.179877,83.7930797 542.179877,83.2106987 C542.179877,82.7156755 541.953804,82.4172053 541.50166,82.3152874 C541.049516,82.2133736 540.45881,82.162415 539.729543,82.1624124 L539.729543,71.3301206 C539.729543,70.3691875 539.656616,69.4810556 539.510764,68.6657263 C539.364911,67.8504089 539.11696,67.1442721 538.766912,66.5473144 C538.416865,65.950418 537.957427,65.4845134 537.388599,65.1495993 C536.819796,64.8147279 536.112408,64.6472928 535.266435,64.6472955 C533.341181,64.6472795 531.605528,65.6373272 530.059476,67.61744 C529.621916,66.5691537 529.096845,65.8193382 528.484261,65.3679923 C527.871678,64.9166464 527.127826,64.6909741 526.252707,64.6909741 C525.231735,64.6909741 524.349323,64.909367 523.605472,65.346153 C522.86162,65.7829336 522.183403,66.4235526 521.570819,67.2680112 C521.541649,66.7729867 521.497893,66.3507607 521.439551,66.0013319 C521.381212,65.6519512 521.177018,65.3753196 520.826968,65.1714386 L520.826968,65.1714386 Z M547.255569,65.1714386 C547.138887,65.1429092 547.022203,65.1283492 546.905521,65.12776 L546.511717,65.12776 C546.074158,65.1276507 545.64389,65.1786086 545.220917,65.2806351 C544.797943,65.3824803 544.418725,65.5062354 544.083262,65.6519032 C543.747799,65.7974763 543.485263,65.9576307 543.295654,66.1323677 C543.106045,66.3070821 543.01124,66.4817965 543.01124,66.6565109 C543.01124,66.8894638 543.135215,67.0860175 543.383166,67.2461719 C543.631116,67.4063263 543.871774,67.5009642 544.10514,67.5300828 L544.805235,67.5300828 C545.0386,67.5298242 545.271965,67.5152642 545.50533,67.4864042 L545.50533,81.5072334 C545.417821,81.6237092 545.323016,81.7329064 545.220917,81.8348229 C545.11882,81.9367394 545.024015,82.0459359 544.936503,82.1624124 C544.178066,82.1915276 543.696751,82.3080041 543.492556,82.5118411 C543.288361,82.7156748 543.186264,82.8903892 543.186264,83.0359843 C543.186264,83.3562938 543.302947,83.603806 543.536312,83.7785204 C543.769677,83.9532348 543.88636,84.1716278 543.88636,84.4336993 L548.874539,84.4336993 C549.428782,84.4336993 549.844463,84.3754614 550.121584,84.258985 C550.398674,84.1425085 550.566405,83.8804369 550.624778,83.4727702 C550.624778,83.0359843 550.515388,82.7229548 550.296608,82.5336804 C550.077828,82.3444087 549.720488,82.2206529 549.224587,82.1624124 L548.086932,82.1624124 L548.086932,75.5232658 C548.086932,75.2903222 548.079639,75.0792092 548.065054,74.8899262 C548.050469,74.7006525 548.043176,74.5040988 548.043176,74.3002651 C548.043176,73.5431697 548.065054,72.8079136 548.10881,72.094496 C548.152544,71.3810785 548.203593,70.7040603 548.261956,70.0634413 C548.845364,69.0734163 549.472533,68.3454401 550.143462,67.8795116 C550.814383,67.4136723 551.485308,67.1807193 552.156236,67.180654 C553.148039,67.180654 553.804377,67.5883214 554.125255,68.4036547 C554.446132,69.218988 554.60657,70.2381557 554.60657,71.4611564 L554.60657,82.0750552 C554.37329,82.2206503 554.205559,82.3880853 554.103377,82.577359 C554.001279,82.7666327 553.935645,82.9777464 553.906475,83.2106987 C553.964817,83.5601274 554.081499,83.8513183 554.256523,84.0842706 C554.431546,84.3172229 554.810764,84.4336993 555.394178,84.4336993 L557.888267,84.4336993 C558.996752,84.4336993 559.550994,83.9386755 559.550994,82.9486271 C559.463522,82.4244839 559.040548,82.1624124 558.282071,82.1624124 L557.10066,82.1624124 L557.10066,72.6841571 C557.10066,71.8688237 557.217342,71.1262876 557.450708,70.4565487 C557.684073,69.7868098 557.997657,69.2117087 558.391461,68.7312442 C558.785234,68.2507796 559.237379,67.8722322 559.747896,67.5956007 C560.258323,67.3189691 560.790687,67.180654 561.344988,67.180654 C562.190937,67.180622 562.774349,67.5154908 563.095227,68.1852617 C563.416104,68.8550006 563.591128,69.7722511 563.620298,70.9370133 L563.620298,82.1624124 C563.445275,82.4827218 563.277543,82.7011148 563.117105,82.8175913 C562.956667,82.9340671 562.876447,83.1379001 562.876447,83.4290916 C562.876311,83.9241155 563.000287,84.2153064 563.248373,84.3026635 C563.496323,84.3900207 563.868248,84.4336993 564.36415,84.4336993 L566.63946,84.4336993 C567.106191,84.4336993 567.551041,84.3754614 567.974017,84.258985 C568.396992,84.1425085 568.608478,83.7930797 568.608478,83.2106987 C568.608478,82.7156755 568.382405,82.4172053 567.930261,82.3152874 C567.478117,82.2133736 566.887411,82.162415 566.158144,82.1624124 L566.158144,71.3301206 C566.158144,70.3691875 566.085217,69.4810556 565.939364,68.6657263 C565.793512,67.8504089 565.545561,67.1442721 565.195513,66.5473144 C564.845465,65.950418 564.386028,65.4845134 563.8172,65.1495993 C563.248397,64.8147279 562.541009,64.6472928 561.695036,64.6472955 C559.769782,64.6472795 558.034129,65.6373272 556.488077,67.61744 C556.050517,66.5691537 555.525446,65.8193382 554.912862,65.3679923 C554.300279,64.9166464 553.556427,64.6909741 552.681308,64.6909741 C551.660336,64.6909741 550.777924,64.909367 550.034072,65.346153 C549.290221,65.7829336 548.612004,66.4235526 547.99942,67.2680112 C547.97025,66.7729867 547.926494,66.3507607 547.868152,66.0013319 C547.809813,65.6519512 547.605619,65.3753196 547.255569,65.1714386 L547.255569,65.1714386 Z M582.697898,64.9530456 C582.056144,64.9530456 581.356049,64.9967242 580.597612,65.0840814 C579.839175,65.1714386 579.080738,65.2151172 578.322302,65.2151172 L576.528307,65.2151172 C575.799041,65.3024744 575.230213,65.3825523 574.821825,65.4553495 C574.413441,65.5281467 574.13632,65.768379 573.990461,66.1760463 C573.990459,67.1078581 574.588457,67.5737627 575.784456,67.5737614 L577.228403,67.5737614 C577.899327,67.5738894 578.555666,67.5593294 579.197421,67.5300828 C579.839164,67.5014814 580.480919,67.4869214 581.122683,67.4864042 L581.122683,80.4152685 L581.122683,80.7646973 C581.122683,81.1432447 581.100805,81.4271556 581.057049,81.6164299 C581.013293,81.8057036 580.933073,81.9440194 580.816391,82.0313766 C580.699709,82.1187338 580.531978,82.1624124 580.313198,82.1624124 L579.503713,82.1624124 L575.08436,82.1624124 C573.800852,82.1624117 573.159098,82.5700784 573.159098,83.385413 C573.159098,83.7930797 573.319536,84.0697113 573.640414,84.2153064 C573.961291,84.3609015 574.369679,84.4336993 574.865581,84.4336993 L589.655096,84.4336993 C590.471812,84.4336993 591.069809,84.3681814 591.44909,84.2371457 C591.828309,84.1061099 592.017918,83.7057225 592.017918,83.0359843 C591.930406,82.7156748 591.755382,82.4972818 591.492846,82.3808053 C591.23031,82.2643289 590.880263,82.1915316 590.442703,82.1624124 L585.279499,82.1624124 C584.87111,82.1624124 584.564818,82.1405731 584.360624,82.0968945 C584.15643,82.0532185 584.010577,81.9804207 583.923065,81.8785015 C583.835553,81.7765863 583.791797,81.6164312 583.791797,81.3980369 L583.791797,80.5463043 L583.791797,67.0932968 C583.79206,66.4235579 583.741012,65.9139747 583.638651,65.564546 C583.536589,65.2151172 583.223005,65.0112842 582.697898,64.9530456 L582.697898,64.9530456 Z M583.004189,56.0426121 C581.779023,56.0426121 580.969537,56.2610051 580.575734,56.6977911 C580.18193,57.134577 579.985028,57.7897559 579.985028,58.6633279 C579.985028,59.4204226 580.167344,60.031923 580.531978,60.4978289 C580.896611,60.9635962 581.399805,61.1965478 582.041558,61.1966864 C582.712483,61.1968624 583.237555,61.0367066 583.616773,60.7162219 C583.995956,60.395913 584.185566,59.8717699 584.1856,59.1437924 C584.185656,58.4158149 584.090852,57.7897559 583.901187,57.2656128 C583.71166,56.7414696 583.41266,56.3338036 583.004189,56.0426121 L583.004189,56.0426121 Z M602.650616,63.1622232 L602.650616,65.346153 C602.038038,65.4038837 601.454626,65.440283 600.900378,65.4553495 C600.346136,65.4694923 599.850235,65.4986109 599.412675,65.5427067 C598.975115,65.586284 598.610482,65.6809205 598.318776,65.8266176 C598.02707,65.9722133 597.837461,66.1906063 597.749949,66.4817965 C597.749949,67.0350583 597.88851,67.3917677 598.16563,67.5519221 C598.442752,67.7120765 598.916774,67.7921544 599.587699,67.7921544 L602.738128,67.7921544 L602.738128,77.7945528 C602.738128,79.1340293 602.869396,80.2623934 603.131932,81.179644 C603.394459,82.0968945 603.795555,82.8321506 604.335221,83.385413 C604.874873,83.9386755 605.567675,84.3317828 606.413629,84.5647351 C607.259578,84.7976874 608.28055,84.9141639 609.476546,84.9141639 C610.264134,84.9141639 611.110083,84.8340867 612.014392,84.6739316 C612.918681,84.5137765 613.771923,84.2808242 614.574116,83.9750741 C615.376309,83.6693239 616.083696,83.2980558 616.69628,82.8612699 C617.308863,82.4244839 617.717251,81.9294601 617.921447,81.3761976 C617.892793,81.0850101 617.797991,80.7865393 617.637033,80.4807864 C617.476595,80.1750356 617.265107,79.9639226 617.002572,79.8474468 C616.710866,79.9347966 616.331646,80.116791 615.864917,80.3934292 C615.398187,80.6700588 614.85853,80.968529 614.245946,81.2888404 C613.633363,81.6091506 612.940559,81.8930608 612.167538,82.1405731 C611.394516,82.3880847 610.55586,82.5118405 609.65157,82.5118411 C608.805621,82.5118411 608.105526,82.4099246 607.551284,82.206091 C606.997042,82.0022573 606.559483,81.6892278 606.238605,81.2670011 C605.917728,80.8447765 605.698948,80.3060734 605.582266,79.6508931 C605.465648,78.9957142 605.407307,78.2167794 605.407242,77.3140882 L605.407242,67.835833 C606.778262,67.8067143 608.141989,67.784875 609.498424,67.7703151 C610.854859,67.7557551 612.218586,67.7484758 613.589607,67.7484758 C614.17302,67.7484758 614.676213,67.6829579 615.099187,67.5519221 C615.522089,67.4208863 615.733577,67.1515354 615.733649,66.7438681 C615.73374,66.2488435 615.573301,65.9066954 615.252333,65.7174211 C614.93149,65.5281467 614.464761,65.4335102 613.852142,65.4335102 C612.422781,65.4332196 611.000713,65.4405003 609.585936,65.4553495 C608.17116,65.4696949 606.749091,65.4769742 605.31973,65.4771888 C605.348901,64.8948071 605.378071,64.3269853 605.407242,63.7737236 C605.436413,63.2204618 605.450998,62.65264 605.450998,62.0702583 C605.450998,61.1675665 605.378071,60.4905482 605.232218,60.0392036 C605.086365,59.5880003 604.619635,59.3623267 603.832027,59.3621854 C603.540346,59.3908441 603.314273,59.5291606 603.15381,59.777132 C602.9934,60.024645 602.876717,60.3303952 602.803762,60.6943826 C602.730835,61.05837 602.687079,61.458758 602.672494,61.8955439 C602.657909,62.3323352 602.650616,62.7545612 602.650616,63.1622232 L602.650616,63.1622232 Z M641.155862,79.1485893 C641.155828,79.730971 640.99539,80.2405548 640.674547,80.6773401 C640.353709,81.1141261 639.923442,81.4853941 639.383746,81.7911443 C638.844137,82.0968945 638.216968,82.3298474 637.50224,82.4900018 C636.787553,82.6501542 636.03641,82.7302314 635.248808,82.7302341 C634.402864,82.7302341 633.600672,82.6428769 632.84223,82.4681625 C632.083793,82.2934481 631.398283,82.0459359 630.7857,81.7256264 C630.173123,81.4053163 629.677223,81.0267689 629.297997,80.5899829 C628.918786,80.1531963 628.685421,79.6581724 628.597901,79.1049107 C628.452049,78.6098868 628.255147,78.2386187 628.007196,77.9911065 C627.759245,77.7435942 627.41649,77.6198384 626.978931,77.6198384 C626.658057,77.6198384 626.431985,77.7581542 626.300714,78.0347851 C626.169446,78.3114159 626.103812,78.6681247 626.103812,79.1049107 L626.103812,82.8612699 L626.103812,82.9486271 C626.103812,83.2980558 626.176738,83.5164488 626.322591,83.603806 C626.468445,83.6911632 626.665347,83.7130025 626.913297,83.6693239 C627.161247,83.6256453 627.452954,83.5528474 627.788416,83.4509309 C628.123879,83.3490144 628.481219,83.2689366 628.860437,83.2106987 C629.677215,83.7930797 630.639847,84.2298657 631.748331,84.5210565 C632.856815,84.8122474 634.052811,84.9578425 635.33632,84.9578425 C636.561487,84.9578425 637.699142,84.8268067 638.749285,84.5647351 C639.799428,84.3026635 640.718303,83.9168362 641.50591,83.4072523 C642.293517,82.8976685 642.906101,82.2716088 643.343661,81.5290727 C643.78122,80.7865366 644,79.934804 644,78.9738749 C644,77.7799975 643.737464,76.8481877 643.212393,76.1784447 C642.687321,75.5087098 641.965348,74.9772867 641.046473,74.584176 C640.127597,74.1910813 639.040991,73.8780511 637.786653,73.6450862 C636.532316,73.4121659 635.190466,73.1646536 633.761105,72.9025501 C632.244232,72.6113599 631.121162,72.2619311 630.391896,71.8542638 C629.662633,71.4465964 629.298,70.864216 629.297997,70.1071199 C629.297997,69.5829768 629.44385,69.1170722 629.735556,68.7094049 C630.027263,68.3017375 630.413774,67.9668687 630.895089,67.7047972 C631.376405,67.4427256 631.93794,67.2388926 632.579694,67.0932968 C633.221437,66.9477011 633.892362,66.8749039 634.592468,66.8749039 C635.496758,66.8749039 636.262487,66.9404217 636.889656,67.0714575 C637.516825,67.2024933 638.049189,67.3917677 638.486749,67.6392793 C638.924308,67.8867909 639.274356,68.1852617 639.536892,68.5346905 C639.799428,68.8841193 640.018207,69.2917866 640.193231,69.7576912 C640.280709,70.0488814 640.382806,70.3400729 640.499523,70.6312631 C640.616205,70.9224533 640.878741,71.0971677 641.28713,71.1554062 L641.549666,71.1554062 C642.045567,71.1553929 642.388322,70.92244 642.577931,70.4565487 C642.767541,69.9906575 642.862345,69.2626813 642.862345,68.2726189 C642.862668,68.1270232 642.855375,67.9377501 642.840467,67.7047972 C642.825881,67.4718442 642.804003,67.2461719 642.774833,67.0277789 C642.745663,66.809386 642.687321,66.6346716 642.599809,66.5036358 C642.512297,66.3726 642.4102,66.3216421 642.293517,66.3507607 L641.72469,66.5254751 C641.491362,66.4672365 641.090266,66.3362007 640.521401,66.1323677 C639.952574,65.9285347 639.318112,65.7101417 638.618017,65.4771888 C637.917921,65.2442358 637.20324,65.0404028 636.473975,64.8656885 C635.744709,64.6909741 635.11754,64.6036169 634.592468,64.6036169 C633.425643,64.6036169 632.353621,64.7346527 631.376405,64.9967242 C630.399189,65.2587758 629.55324,65.6373232 628.838559,66.1323677 C628.123879,66.6273923 627.569636,67.2170533 627.175833,67.9013509 C626.782029,68.5856484 626.585127,69.3500238 626.585127,70.1944771 C626.585127,71.3301206 626.847663,72.2255318 627.372735,72.8807108 C627.897806,73.5358897 628.619779,74.0454735 629.538655,74.4094616 C630.457532,74.7734497 631.536846,75.0646406 632.776596,75.2830335 C634.016349,75.5014265 635.36549,75.7416588 636.824022,76.0037304 C638.165854,76.2366826 639.223289,76.5861114 639.99633,77.0520167 C640.76933,77.5179219 641.155841,78.2167794 641.155862,79.1485893 L641.155862,79.1485893 Z" id="Text" fill="#384259"></path>
            </g>
        </g>
    </g>
</svg>