<?xml version="1.0" encoding="UTF-8" standalone="no"?>
<svg width="448px" height="155px" viewBox="0 0 448 155" version="1.1" xmlns="http://www.w3.org/2000/svg" xmlns:xlink="http://www.w3.org/1999/xlink">
    <!-- Generator: Sketch 39.1 (31720) - http://www.bohemiancoding.com/sketch -->
    <title>V3-Logo+Text</title>
    <desc>Created with Sketch.</desc>
    <defs></defs>
    <g id="Page1" stroke="none" stroke-width="1" fill="none" fill-rule="evenodd">
        <g id="V3" transform="translate(-32.000000, -37.000000)">
            <g id="V3-Logo+Text" transform="translate(32.000000, 41.000000)">
                <g id="Logo">
                    <g id="Group" transform="translate(66.000000, 0.000000)">
                        <path d="M14,9 L14,141.492497" id="Path-2" stroke="#384259" stroke-width="10" stroke-linecap="round" stroke-linejoin="round"></path>
                        <path d="M14.1074219,140.44336 L14.1074219,117.91211 C14.1074219,117.91211 6.42187511,60.7539062 74.6523422,56.40625" id="Path-3" stroke="#384259" stroke-width="10" stroke-linecap="round" stroke-linejoin="round"></path>
                        <path d="M14.7997345,146.59 C6.62816003,146.59 0,139.96919 0,131.795 C0,123.62081 6.62816003,117 14.7997345,117 C22.9618401,117 29.5900002,123.62081 29.5900002,131.795 C29.5900002,139.96919 22.9618401,146.59 14.7997345,146.59 Z" id="Fill-14" stroke="#7AC7C4" stroke-width="8" fill="#FFFFFF"></path>
                        <path d="M29.5900002,14.7950001 C29.5900002,22.9691903 22.9618401,29.5900002 14.7997345,29.5900002 C6.62816003,29.5900002 0,22.9691903 0,14.7950001 C0,6.62080989 6.62816003,0 14.7997345,0 C22.9618401,0 29.5900002,6.62080989 29.5900002,14.7950001" id="Fill-14" stroke="#7AC7C4" stroke-width="8" fill="#FFFFFF"></path>
                        <path d="M84.5900002,56.7950001 C84.5900002,64.9691903 77.9618401,71.5900002 69.7997345,71.5900002 C61.62816,71.5900002 55,64.9691903 55,56.7950001 C55,48.6208099 61.62816,42 69.7997345,42 C77.9618401,42 84.5900002,48.6208099 84.5900002,56.7950001" id="Fill-14" stroke="#7AC7C4" stroke-width="8" fill="#FFFFFF"></path>
                    </g>
                    <path d="M172.741396,24.9269757 C172.741396,23.6617666 172.550704,22.7372045 172.169314,22.1532619 C171.787924,21.5693192 170.92981,21.2773523 169.594946,21.2773523 L153.862696,21.2773523 C152.241789,21.2773523 151.026127,21.0827076 150.215674,20.6934125 C149.405221,20.3041174 149,19.5742 149,18.5036385 C149,17.1411056 149.595913,16.2165436 150.787756,15.7299247 C151.979599,15.2433058 153.671991,15 155.864982,15 L170.167028,15 C174.457663,15 177.151188,16.0218843 178.247683,18.0656837 C179.344179,20.109483 179.892419,23.0778137 179.892419,26.9707648 L179.892419,61.8611645 C179.892419,64.3915828 180.488331,66.3866903 181.680174,67.8465469 C182.872017,69.3064036 184.42139,70.036321 186.328339,70.036321 L190.618953,70.036321 C192.907292,70.036321 194.051444,71.0582053 194.051444,73.1020046 C194.051444,75.145804 192.907292,76.1676883 190.618953,76.1676883 L186.328339,76.1676883 C184.42139,76.1676883 182.872017,76.8976057 181.680174,78.3574623 C180.488331,79.817319 179.892419,81.8124265 179.892419,84.3428447 L179.892419,119.379229 C179.892419,123.272181 179.344179,126.216181 178.247683,128.211318 C177.151188,130.206456 174.457663,131.204009 170.167028,131.204009 L155.864982,131.204009 C153.671991,131.204009 151.979599,130.985034 150.787756,130.547077 C149.595913,130.10912 149,129.208889 149,127.846356 C149,126.775794 149.405221,126.045877 150.215674,125.656582 C151.026127,125.267287 152.241789,125.072642 153.862696,125.072642 L169.594946,125.072642 C170.92981,125.072642 171.787924,124.780675 172.169314,124.196732 C172.550704,123.61279 172.741396,122.688228 172.741396,121.423019 L172.741396,84.3428447 C172.741396,81.7151027 173.313472,79.4280283 174.457641,77.4815527 C175.601811,75.5350772 177.270366,74.0752424 179.463357,73.1020046 C174.982027,71.1555291 172.741396,67.457281 172.741396,62.0071495 L172.741396,24.9269757 Z" id="}" fill="#F73859"></path>
                    <path d="M21.3100487,121.423022 C21.3100487,122.688231 21.4769042,123.612793 21.8106203,124.196736 C22.1443364,124.780678 22.978614,125.072645 24.3134783,125.072645 L40.1887495,125.072645 C41.8096562,125.072645 43.0253179,125.26729 43.8357712,125.656585 C44.6462246,126.04588 45.0514452,126.775798 45.0514452,127.846359 C45.0514452,129.208892 44.4555325,130.109124 43.2636894,130.547081 C42.0718463,130.985038 40.3794544,131.204013 38.186463,131.204013 L23.884417,131.204013 C19.5937817,131.204013 16.9002566,130.206459 15.8037609,128.211322 C14.7072652,126.216184 14.1590256,123.272184 14.1590256,119.379233 L14.1590256,84.3428469 C14.1590256,81.8124286 13.563113,79.817321 12.3712699,78.3574643 C11.1794267,76.8976076 9.6300539,76.1676902 7.72310489,76.1676902 L3.43249106,76.1676902 C1.14415225,76.1676902 0,75.1458058 0,73.1020064 C0,71.058207 1.14415225,70.0363227 3.43249106,70.0363227 L7.72310489,70.0363227 C9.6300539,70.0363227 11.1794267,69.3064053 12.3712699,67.8465486 C13.563113,66.3866918 14.1590256,64.3915843 14.1590256,61.861166 L14.1590256,26.9707651 C14.1590256,23.0778139 14.7072652,20.1094831 15.8037609,18.0656838 C16.9002566,16.0218844 19.5937817,15 23.884417,15 L38.186463,15 C40.3794544,15 42.0718463,15.2189752 43.2636894,15.6569322 C44.4555325,16.0948892 45.0514452,16.9951207 45.0514452,18.3576536 C45.0514452,20.3041292 43.4305628,21.2773525 40.1887495,21.2773525 L24.3134783,21.2773525 C22.978614,21.2773525 22.1443364,21.5693194 21.8106203,22.1532621 C21.4769042,22.7372048 21.3100487,23.6617668 21.3100487,24.926976 L21.3100487,62.0071509 C21.3100487,67.4572826 19.0217442,71.1555308 14.4450665,73.1020064 C16.6380579,74.0752442 18.3304498,75.535079 19.5222929,77.4815546 C20.714136,79.4280303 21.3100487,81.7151048 21.3100487,84.3428469 L21.3100487,121.423022 Z" id="{" fill="#F73859"></path>
                </g>
                <path d="M216.043756,95.5403647 L216.043756,95.8024362 C216.014585,96.0062693 216,96.1955436 216,96.370258 L216,96.8944011 L216,97.2875085 C216,99.1511281 216.226073,100.912832 216.678217,102.572619 C217.130363,104.232404 217.815872,105.681078 218.734748,106.918639 C219.653623,108.156199 220.805863,109.138967 222.191469,109.866944 C223.577074,110.594921 225.188752,110.958909 227.026502,110.958909 C228.660059,110.958909 230.162346,110.653159 231.533366,110.041658 C232.904387,109.430158 234.078504,108.549306 235.055721,107.399103 C236.032895,106.2489 236.791333,104.836626 237.331031,103.16228 C237.870599,101.487934 238.140428,99.5879148 238.140517,97.4622229 L238.140517,97.3311871 C238.140677,95.5258047 237.929191,93.8223395 237.506055,92.2207914 C237.083077,90.6192353 236.455909,89.2069603 235.624549,87.9839676 C234.793186,86.7609883 233.743042,85.7709392 232.47412,85.0138231 C231.205197,84.2567283 229.724786,83.8199424 228.032889,83.7034652 L227.901622,83.7034652 C227.726598,83.6456359 227.558866,83.6092379 227.398428,83.5942687 C227.23799,83.5807338 227.070258,83.5734532 226.895234,83.5724294 C223.803148,83.5724294 221.301765,84.6207157 219.391087,86.7172883 C217.48041,88.8138609 216.364633,91.7548868 216.043756,95.5403647 L216.043756,95.5403647 Z M218.800382,97.5495801 C218.80038,93.8223395 219.551524,90.9541121 221.053814,88.9448967 C222.556099,86.9356813 224.561581,85.9310736 227.070258,85.9310736 C228.441279,85.9310043 229.637274,86.2294738 230.658247,86.8264848 C231.67922,87.4233519 232.532461,88.2314046 233.217971,89.2506469 C233.903432,90.2697866 234.413918,91.4636686 234.74943,92.8322917 C235.084821,94.2008802 235.252552,95.6568338 235.252623,97.2001513 L235.252623,97.2438299 C235.252623,98.845378 235.077599,100.34501 234.727552,101.742725 C234.377504,103.14044 233.859725,104.348882 233.174215,105.368049 C232.488705,106.387216 231.635464,107.19527 230.614491,107.792211 C229.593518,108.389151 228.412107,108.687621 227.070258,108.687622 C225.728409,108.687622 224.539705,108.396432 223.504147,107.81405 C222.468593,107.231668 221.600766,106.430895 220.900668,105.411727 C220.200572,104.39256 219.675501,103.213238 219.325453,101.873761 C218.975405,100.534284 218.800382,99.0928909 218.800382,97.5495801 L218.800382,97.5495801 Z M262.468831,85.7563592 C262.527173,85.8721939 262.578221,85.988671 262.621977,86.105788 C262.665393,86.2221505 262.803953,86.2803877 263.037659,86.2805024 C263.270831,86.2222651 263.526073,86.0912294 263.803388,85.887395 C264.080327,85.6835607 264.248057,85.4651677 264.306582,85.2322161 C264.131558,84.271375 263.577315,83.5870761 262.643855,83.1793221 C261.710394,82.77208 260.397715,82.5391283 258.705819,82.4804646 L258.312015,82.4804646 C255.657487,82.4804646 253.637419,82.9827684 252.251814,83.9873761 C250.866206,84.9919758 250.173403,86.6881604 250.173406,89.0759325 L250.173406,91.2598623 L246.629173,91.2598623 C246.045761,91.2597717 245.622786,91.3762475 245.36025,91.6092911 C245.097715,91.842244 244.966447,92.1479942 244.966447,92.5265416 C244.966447,92.8177318 245.075837,93.0798033 245.294616,93.3127563 C245.513396,93.5455173 245.885322,93.6619931 246.410393,93.6621851 L250.173406,93.6621851 L250.173406,106.634728 L250.173406,107.158871 C250.173406,107.47918 250.12965,107.712132 250.042138,107.857729 C249.954626,108.003324 249.706676,108.076122 249.298287,108.076122 L246.23537,108.076122 C245.739468,108.076122 245.38942,108.163479 245.185226,108.338193 C244.981032,108.512908 244.878935,108.818658 244.878935,109.255444 C244.878935,110.012539 245.404006,110.391087 246.454149,110.391087 L259.01211,110.391087 C259.537182,110.391087 259.996619,110.332849 260.390423,110.216373 C260.784227,110.099896 261.024885,109.881503 261.112396,109.561194 C261.112396,109.007932 260.922787,108.658503 260.543569,108.512908 C260.164351,108.367315 259.653864,108.221719 259.01211,108.076122 L255.424121,108.076122 C255.161586,108.076122 254.906342,108.083402 254.658392,108.097961 C254.410442,108.11252 254.169784,108.1198 253.936419,108.1198 C253.353064,108.1198 253.032187,108.017884 252.973788,107.81405 C252.915398,107.610216 252.886228,107.21711 252.886276,106.634728 L252.886276,93.6621851 L260.193521,93.6621851 C260.689423,93.5748265 261.068641,93.4292308 261.331176,93.2253991 C261.593712,93.0215994 261.72498,92.6867306 261.72498,92.2207914 C261.666841,91.9587198 261.520988,91.7621661 261.28742,91.6311304 C261.054055,91.5000946 260.769641,91.4054581 260.434179,91.3472195 C260.098717,91.2889809 259.734084,91.2598623 259.34028,91.2598623 L258.180747,91.2598623 L252.886276,91.2598623 C252.886468,90.9395521 252.879176,90.6046834 252.864398,90.2552546 C252.849788,89.9058258 252.842496,89.570957 252.84252,89.2506469 C252.84249,87.7364547 253.185246,86.6226505 253.870785,85.9092343 C254.556297,85.1958021 255.730416,84.8390927 257.39314,84.8391087 C257.743187,84.8392234 258.158869,84.8756213 258.640185,84.9483052 C259.1215,85.0205253 259.610108,85.1006018 260.106009,85.1885375 C260.601911,85.2758947 261.061348,85.3705325 261.484322,85.4724484 C261.907296,85.5743642 262.235466,85.669002 262.468831,85.7563592 L262.468831,85.7563592 Z M269.338517,97.0254369 C269.338517,98.9764138 269.601053,100.796355 270.126125,102.485261 C270.651195,104.174167 271.409632,105.65196 272.401435,106.918639 C273.393237,108.185318 274.611111,109.182646 276.055057,109.910623 C277.499004,110.638599 279.139853,111.002588 280.977603,111.002588 C282.144412,111.002588 283.245603,110.842432 284.281178,110.522123 C285.316723,110.201814 286.250184,109.779587 287.08156,109.255444 C287.912923,108.731301 288.613018,108.14164 289.181846,107.486461 C289.750673,106.831282 290.137183,106.168823 290.341379,105.499084 C290.341467,104.596393 290.020591,103.955774 289.378748,103.577226 C288.941209,103.69369 288.496358,104.00672 288.044191,104.516316 C287.592098,105.025899 287.16183,105.455406 286.75339,105.804835 C286.082484,106.620168 285.302168,107.297186 284.412446,107.835889 C283.522741,108.374592 282.406964,108.643943 281.065115,108.643943 L281.021359,108.643943 C279.70868,108.643943 278.512683,108.352753 277.43337,107.770371 C276.354056,107.18799 275.435181,106.394496 274.676745,105.389888 C273.918308,104.38528 273.327603,103.205958 272.904628,101.851922 C272.48167,100.497885 272.270183,99.0492123 272.270167,97.5059015 C272.270167,95.933472 272.445191,94.4483998 272.795238,93.0506847 C273.145283,91.6529697 273.677648,90.4226897 274.392331,89.3598434 C275.107011,88.2970398 276.004009,87.4525865 277.083322,86.8264848 C278.162636,86.2005431 279.431559,85.8875123 280.890091,85.887395 C282.64033,85.887395 284.084276,86.3460203 285.221931,87.2632708 C286.359586,88.1805213 287.045096,89.2943255 287.278462,90.6046834 C287.424315,91.0996439 287.555583,91.5291505 287.672265,91.8932019 C287.788958,92.2571414 288.06608,92.4391351 288.503628,92.4391844 C289.057785,92.4392404 289.422418,92.2718053 289.597528,91.9368805 C289.772551,91.6020277 289.860063,91.1288425 289.860063,90.5173262 L289.860063,90.3862904 C289.860063,89.8039087 289.85277,89.2360869 289.838185,88.6828251 C289.823601,88.1296047 289.816307,87.561783 289.816307,86.9793599 L289.816307,86.1931452 C289.81525,85.9310736 289.844421,85.669002 289.903819,85.4069305 C289.816307,84.5042386 289.422504,84.052894 288.722408,84.052894 C288.226496,84.052894 287.847278,84.2567283 287.584753,84.6643943 C287.322192,85.0720603 287.117998,85.4069305 286.97217,85.669002 C285.1636,84.271287 283.092484,83.5724294 280.758823,83.5724294 C278.775227,83.5724294 277.068745,83.9728175 275.639376,84.7735908 C274.210014,85.5743642 273.028603,86.6226505 272.095143,87.9184497 C271.161685,89.2142476 270.468881,90.6629219 270.016735,92.26447 C269.564591,93.8660181 269.338519,95.4530075 269.338517,97.0254369 L269.338517,97.0254369 Z M296.029654,100.825475 C296.029654,102.310547 296.284897,103.664583 296.795383,104.887584 C297.305868,106.110585 298.020549,107.16615 298.939425,108.054282 C299.858301,108.942414 300.944907,109.633992 302.199244,110.129016 C303.453582,110.62404 304.824602,110.871552 306.312305,110.871552 L306.443573,110.871552 C307.872919,110.871552 309.214768,110.62404 310.469121,110.129016 C311.723458,109.633992 312.817357,108.942414 313.750818,108.054282 C314.684279,107.16615 315.413545,106.096025 315.938616,104.843906 C316.463688,103.591786 316.726224,102.22319 316.726224,100.738118 C316.726536,99.5151169 316.536928,98.3576341 316.157396,97.2656692 C315.778241,96.1737016 315.238584,95.1982126 314.538426,94.3392033 C313.83833,93.4801914 313.014259,92.7594945 312.066214,92.1771128 C311.118168,91.5947311 310.075318,91.1725051 308.937663,90.9104335 C308.587615,90.7939551 308.179225,90.7357165 307.712496,90.7357191 L307.624984,90.7357191 C307.508302,90.7357191 307.42079,90.7502791 307.362448,90.7793977 C307.245766,90.750879 307.085326,90.736319 306.881132,90.7357191 C305.39343,90.7357191 303.985946,90.9686721 302.658682,91.4345767 C301.331418,91.9004813 300.179177,92.5629408 299.201961,93.4219528 C298.224744,94.2809647 297.451723,95.3365317 296.882895,96.588651 C296.314068,97.8407703 296.029654,99.2530453 296.029654,100.825475 L296.029654,100.825475 Z M298.830035,100.738118 C298.830035,99.6607126 299.005059,98.6488256 299.355107,97.7024552 C299.705155,96.756098 300.208348,95.933484 300.864688,95.2346145 C301.521027,94.5357956 302.308634,93.9752532 303.22751,93.5529886 C304.146385,93.1308772 305.17465,92.9052049 306.312305,92.8759703 L306.399817,92.8759703 C307.479133,92.8759703 308.478228,93.072524 309.3971,93.4656314 C310.315975,93.8587241 311.103583,94.4119858 311.759922,95.125418 C312.416227,95.8388129 312.934006,96.6832662 313.313259,97.6587766 C313.692372,98.634251 313.881982,99.7043759 313.882086,100.869153 C313.882086,101.975678 313.692477,103.002125 313.313259,103.948494 C312.934041,104.894863 312.408969,105.710198 311.738044,106.394496 C311.067116,107.078793 310.272217,107.617496 309.353344,108.010604 C308.434469,108.403711 307.435374,108.600265 306.356061,108.600265 C305.276748,108.600265 304.277653,108.403711 303.358777,108.010604 C302.439902,107.617496 301.645002,107.071514 300.974078,106.372656 C300.303153,105.673799 299.778081,104.843906 299.398863,103.882976 C299.019644,102.922047 298.830035,101.873761 298.830035,100.738118 L298.830035,100.738118 Z M324.427273,91.1288265 C324.310591,91.1002971 324.193907,91.0857371 324.077225,91.0851479 L323.683422,91.0851479 C323.245862,91.0850386 322.815595,91.1359965 322.392621,91.238023 C321.969647,91.3398682 321.590429,91.4636233 321.254966,91.6092911 C320.919503,91.7548642 320.656967,91.9150186 320.467358,92.0897556 C320.27775,92.26447 320.182945,92.4391844 320.182945,92.6138988 C320.182945,92.8468517 320.30692,93.0434054 320.55487,93.2035598 C320.80282,93.3637142 321.043478,93.4583521 321.276844,93.4874707 L321.976939,93.4874707 C322.210304,93.4872121 322.443669,93.4726521 322.677035,93.4437921 L322.677035,107.464621 C322.589525,107.581097 322.49472,107.690294 322.392621,107.792211 C322.290524,107.894127 322.195719,108.003324 322.108207,108.1198 C321.349771,108.148916 320.868455,108.265392 320.66426,108.469229 C320.460066,108.673063 320.357969,108.847777 320.357969,108.993372 C320.357969,109.313682 320.474651,109.561194 320.708016,109.735908 C320.941381,109.910623 321.058064,110.129016 321.058064,110.391087 L326.046244,110.391087 C326.600486,110.391087 327.016168,110.332849 327.293288,110.216373 C327.570379,110.099896 327.73811,109.837825 327.796482,109.430158 C327.796482,108.993372 327.687092,108.680343 327.468312,108.491068 C327.249533,108.301797 326.892192,108.178041 326.396291,108.1198 L325.258636,108.1198 L325.258636,101.480654 C325.258636,101.24771 325.251343,101.036597 325.236758,100.847314 C325.222173,100.65804 325.21488,100.461487 325.21488,100.257653 C325.21488,99.5005576 325.236758,98.7653014 325.280514,98.0518839 C325.324248,97.3384664 325.375297,96.6614482 325.43366,96.0208292 C326.017068,95.0308042 326.644237,94.302828 327.315166,93.8368994 C327.986088,93.3710602 328.657012,93.1381072 329.327941,93.1380419 C330.319743,93.1380419 330.976081,93.5457092 331.296959,94.3610426 C331.617836,95.1763759 331.778275,96.1955436 331.778275,97.4185443 L331.778275,108.032443 C331.544994,108.178038 331.377263,108.345473 331.275081,108.534747 C331.172983,108.724021 331.107349,108.935134 331.078179,109.168087 C331.136521,109.517515 331.253203,109.808706 331.428227,110.041658 C331.603251,110.274611 331.982469,110.391087 332.565882,110.391087 L335.059972,110.391087 C336.168456,110.391087 336.722698,109.896063 336.722698,108.906015 C336.635226,108.381872 336.212252,108.1198 335.453775,108.1198 L334.272364,108.1198 L334.272364,98.641545 C334.272364,97.8262116 334.389046,97.0836755 334.622412,96.4139366 C334.855778,95.7441977 335.169362,95.1690966 335.563165,94.6886321 C335.956938,94.2081675 336.409084,93.8296201 336.9196,93.5529886 C337.430027,93.276357 337.962391,93.1380419 338.516693,93.1380419 C339.362642,93.1380099 339.946054,93.4728787 340.266931,94.1426496 C340.587809,94.8123885 340.762832,95.729639 340.792003,96.8944011 L340.792003,108.1198 C340.616979,108.44011 340.449247,108.658503 340.288809,108.774979 C340.128371,108.891455 340.048151,109.095288 340.048151,109.38648 C340.048015,109.881503 340.171991,110.172694 340.420077,110.260051 C340.668027,110.347409 341.039953,110.391087 341.535854,110.391087 L343.811164,110.391087 C344.277895,110.391087 344.722746,110.332849 345.145721,110.216373 C345.568696,110.099896 345.780182,109.750468 345.780182,109.168087 C345.780182,108.673063 345.554109,108.374593 345.101965,108.272675 C344.649821,108.170761 344.059115,108.119803 343.329848,108.1198 L343.329848,97.2875085 C343.329848,96.3265754 343.256921,95.4384435 343.111069,94.6231142 C342.965216,93.8077968 342.717265,93.10166 342.367217,92.5047023 C342.01717,91.9078059 341.557732,91.4419013 340.988904,91.1069872 C340.420101,90.7721158 339.712713,90.6046807 338.86674,90.6046834 C336.941486,90.6046674 335.205833,91.5947151 333.659781,93.5748279 C333.222221,92.5265416 332.69715,91.7767261 332.084566,91.3253802 C331.471983,90.8740343 330.728131,90.648362 329.853012,90.648362 C328.83204,90.648362 327.949628,90.8667549 327.205777,91.3035409 C326.461925,91.7403215 325.783708,92.3809405 325.171124,93.2253991 C325.141954,92.7303746 325.098198,92.3081486 325.039856,91.9587198 C324.981517,91.609339 324.777323,91.3327075 324.427273,91.1288265 L324.427273,91.1288265 Z M350.855874,91.1288265 C350.739192,91.1002971 350.622508,91.0857371 350.505826,91.0851479 L350.112022,91.0851479 C349.674463,91.0850386 349.244195,91.1359965 348.821222,91.238023 C348.398248,91.3398682 348.01903,91.4636233 347.683567,91.6092911 C347.348104,91.7548642 347.085568,91.9150186 346.895959,92.0897556 C346.70635,92.26447 346.611546,92.4391844 346.611546,92.6138988 C346.611546,92.8468517 346.735521,93.0434054 346.983471,93.2035598 C347.231421,93.3637142 347.472079,93.4583521 347.705445,93.4874707 L348.40554,93.4874707 C348.638905,93.4872121 348.87227,93.4726521 349.105635,93.4437921 L349.105635,107.464621 C349.018126,107.581097 348.923321,107.690294 348.821222,107.792211 C348.719125,107.894127 348.62432,108.003324 348.536808,108.1198 C347.778371,108.148916 347.297056,108.265392 347.092861,108.469229 C346.888666,108.673063 346.786569,108.847777 346.786569,108.993372 C346.786569,109.313682 346.903252,109.561194 347.136617,109.735908 C347.369982,109.910623 347.486665,110.129016 347.486665,110.391087 L352.474844,110.391087 C353.029087,110.391087 353.444768,110.332849 353.721889,110.216373 C353.998979,110.099896 354.16671,109.837825 354.225083,109.430158 C354.225083,108.993372 354.115693,108.680343 353.896913,108.491068 C353.678133,108.301797 353.320793,108.178041 352.824892,108.1198 L351.687237,108.1198 L351.687237,101.480654 C351.687237,101.24771 351.679944,101.036597 351.665359,100.847314 C351.650774,100.65804 351.643481,100.461487 351.643481,100.257653 C351.643481,99.5005576 351.665359,98.7653014 351.709115,98.0518839 C351.752849,97.3384664 351.803898,96.6614482 351.862261,96.0208292 C352.445669,95.0308042 353.072838,94.302828 353.743767,93.8368994 C354.414688,93.3710602 355.085613,93.1381072 355.756542,93.1380419 C356.748344,93.1380419 357.404682,93.5457092 357.72556,94.3610426 C358.046437,95.1763759 358.206875,96.1955436 358.206875,97.4185443 L358.206875,108.032443 C357.973595,108.178038 357.805864,108.345473 357.703682,108.534747 C357.601584,108.724021 357.53595,108.935134 357.50678,109.168087 C357.565122,109.517515 357.681804,109.808706 357.856828,110.041658 C358.031852,110.274611 358.411069,110.391087 358.994483,110.391087 L361.488573,110.391087 C362.597057,110.391087 363.151299,109.896063 363.151299,108.906015 C363.063827,108.381872 362.640853,108.1198 361.882376,108.1198 L360.700965,108.1198 L360.700965,98.641545 C360.700965,97.8262116 360.817647,97.0836755 361.051013,96.4139366 C361.284378,95.7441977 361.597962,95.1690966 361.991766,94.6886321 C362.385539,94.2081675 362.837684,93.8296201 363.348201,93.5529886 C363.858628,93.276357 364.390992,93.1380419 364.945293,93.1380419 C365.791243,93.1380099 366.374654,93.4728787 366.695532,94.1426496 C367.016409,94.8123885 367.191433,95.729639 367.220603,96.8944011 L367.220603,108.1198 C367.04558,108.44011 366.877848,108.658503 366.71741,108.774979 C366.556972,108.891455 366.476752,109.095288 366.476752,109.38648 C366.476616,109.881503 366.600592,110.172694 366.848678,110.260051 C367.096628,110.347409 367.468553,110.391087 367.964455,110.391087 L370.239765,110.391087 C370.706496,110.391087 371.151346,110.332849 371.574322,110.216373 C371.997297,110.099896 372.208783,109.750468 372.208783,109.168087 C372.208783,108.673063 371.98271,108.374593 371.530566,108.272675 C371.078422,108.170761 370.487716,108.119803 369.758449,108.1198 L369.758449,97.2875085 C369.758449,96.3265754 369.685522,95.4384435 369.539669,94.6231142 C369.393817,93.8077968 369.145866,93.10166 368.795818,92.5047023 C368.44577,91.9078059 367.986333,91.4419013 367.417505,91.1069872 C366.848702,90.7721158 366.141314,90.6046807 365.295341,90.6046834 C363.370087,90.6046674 361.634434,91.5947151 360.088382,93.5748279 C359.650822,92.5265416 359.125751,91.7767261 358.513167,91.3253802 C357.900584,90.8740343 357.156732,90.648362 356.281613,90.648362 C355.260641,90.648362 354.378229,90.8667549 353.634377,91.3035409 C352.890526,91.7403215 352.212309,92.3809405 351.599725,93.2253991 C351.570555,92.7303746 351.526799,92.3081486 351.468457,91.9587198 C351.410118,91.609339 351.205924,91.3327075 350.855874,91.1288265 L350.855874,91.1288265 Z M386.298203,90.9104335 C385.656449,90.9104335 384.956354,90.9541121 384.197917,91.0414693 C383.43948,91.1288265 382.681043,91.1725051 381.922607,91.1725051 L380.128612,91.1725051 C379.399346,91.2598623 378.830518,91.3399402 378.42213,91.4127374 C378.013746,91.4855346 377.736625,91.7257669 377.590766,92.1334342 C377.590764,93.065246 378.188762,93.5311506 379.384761,93.5311493 L380.828708,93.5311493 C381.499632,93.5312772 382.155972,93.5167173 382.797726,93.4874707 C383.439469,93.4588692 384.081224,93.4443093 384.722988,93.4437921 L384.722988,106.372656 L384.722988,106.722085 C384.722988,107.100633 384.70111,107.384543 384.657354,107.573818 C384.613598,107.763091 384.533379,107.901407 384.416696,107.988764 C384.300014,108.076122 384.132283,108.1198 383.913503,108.1198 L383.104018,108.1198 L378.684665,108.1198 C377.401157,108.1198 376.759403,108.527466 376.759403,109.342801 C376.759403,109.750468 376.919841,110.027099 377.240719,110.172694 C377.561596,110.318289 377.969984,110.391087 378.465886,110.391087 L393.255401,110.391087 C394.072117,110.391087 394.670114,110.325569 395.049395,110.194534 C395.428614,110.063498 395.618223,109.66311 395.618223,108.993372 C395.530711,108.673063 395.355687,108.45467 395.093151,108.338193 C394.830615,108.221717 394.480568,108.14892 394.043008,108.1198 L388.879805,108.1198 C388.471415,108.1198 388.165123,108.097961 387.960929,108.054282 C387.756735,108.010606 387.610882,107.937809 387.52337,107.835889 C387.435858,107.733974 387.392102,107.573819 387.392102,107.355425 L387.392102,106.503692 L387.392102,93.0506847 C387.392365,92.3809458 387.341317,91.8713626 387.238956,91.5219339 C387.136894,91.1725051 386.82331,90.9686721 386.298203,90.9104335 L386.298203,90.9104335 Z M386.604494,82 C385.379328,82 384.569842,82.218393 384.176039,82.6551789 C383.782235,83.0919649 383.585333,83.7471438 383.585333,84.6207157 C383.585333,85.3778105 383.767649,85.9893109 384.132283,86.4552168 C384.496916,86.920984 385.00011,87.1539357 385.641863,87.1540743 C386.312789,87.1542502 386.83786,86.9940945 387.217078,86.6736097 C387.596261,86.3533009 387.785871,85.8291578 387.785905,85.1011803 C387.785962,84.3732028 387.691157,83.7471438 387.501492,83.2230007 C387.311965,82.6988575 387.012965,82.2911915 386.604494,82 L386.604494,82 Z M406.250921,89.1196111 L406.250921,91.3035409 C405.638343,91.3612716 405.054931,91.3976709 404.500683,91.4127374 C403.946441,91.4268801 403.45054,91.4559988 403.01298,91.5000946 C402.575421,91.5436719 402.210787,91.6383084 401.919081,91.7840054 C401.627375,91.9296012 401.437766,92.1479942 401.350254,92.4391844 C401.350254,92.9924461 401.488815,93.3491556 401.765935,93.50931 C402.043057,93.6694644 402.517079,93.7495422 403.188004,93.7495422 L406.338433,93.7495422 L406.338433,103.751941 C406.338433,105.091417 406.469701,106.219781 406.732237,107.137032 C406.994764,108.054282 407.39586,108.789538 407.935526,109.342801 C408.475178,109.896063 409.16798,110.289171 410.013934,110.522123 C410.859883,110.755075 411.880855,110.871552 413.076851,110.871552 C413.864439,110.871552 414.710388,110.791475 415.614697,110.631319 C416.518987,110.471164 417.372228,110.238212 418.174421,109.932462 C418.976614,109.626712 419.684002,109.255444 420.296585,108.818658 C420.909168,108.381872 421.317557,107.886848 421.521752,107.333586 C421.493098,107.042398 421.398296,106.743927 421.237338,106.438174 C421.0769,106.132423 420.865412,105.92131 420.602877,105.804835 C420.311171,105.892185 419.931952,106.074179 419.465222,106.350817 C418.998492,106.627447 418.458835,106.925917 417.846251,107.246228 C417.233668,107.566538 416.540864,107.850449 415.767843,108.097961 C414.994821,108.345473 414.156165,108.469228 413.251875,108.469229 C412.405926,108.469229 411.705831,108.367313 411.151589,108.163479 C410.597347,107.959645 410.159788,107.646616 409.83891,107.224389 C409.518033,106.802164 409.299254,106.263461 409.182571,105.608281 C409.065953,104.953102 409.007612,104.174167 409.007547,103.271476 L409.007547,93.7932208 C410.378567,93.7641022 411.742294,93.7422629 413.098729,93.727703 C414.455164,93.713143 415.818891,93.7058637 417.189912,93.7058637 C417.773325,93.7058637 418.276519,93.6403458 418.699492,93.50931 C419.122394,93.3782742 419.333882,93.1089233 419.333954,92.701256 C419.334045,92.2062314 419.173607,91.8640833 418.852638,91.674809 C418.531795,91.4855346 418.065066,91.3908981 417.452447,91.3908981 C416.023086,91.3906075 414.601018,91.3978881 413.186241,91.4127374 C411.771465,91.4270827 410.349396,91.4343621 408.920035,91.4345767 C408.949206,90.852195 408.978376,90.2843732 409.007547,89.7311114 C409.036718,89.1778497 409.051303,88.6100279 409.051303,88.0276462 C409.051303,87.1249543 408.978376,86.4479361 408.832523,85.9965915 C408.68667,85.5453882 408.21994,85.3197146 407.432332,85.3195733 C407.140651,85.348232 406.914578,85.4865485 406.754115,85.7345199 C406.593705,85.9820329 406.477022,86.287783 406.404067,86.6517704 C406.33114,87.0157579 406.287384,87.4161459 406.272799,87.8529318 C406.258214,88.2897231 406.250921,88.7119491 406.250921,89.1196111 L406.250921,89.1196111 Z M444.756168,105.105977 C444.756133,105.688359 444.595695,106.197943 444.274852,106.634728 C443.954015,107.071514 443.523747,107.442782 442.984051,107.748532 C442.444442,108.054282 441.817273,108.287235 441.102545,108.44739 C440.387858,108.607542 439.636715,108.687619 438.849113,108.687622 C438.003169,108.687622 437.200977,108.600265 436.442535,108.42555 C435.684098,108.250836 434.998588,108.003324 434.386005,107.683014 C433.773429,107.362704 433.277528,106.984157 432.898302,106.547371 C432.519091,106.110584 432.285726,105.61556 432.198207,105.062299 C432.052354,104.567275 431.855452,104.196007 431.607501,103.948494 C431.35955,103.700982 431.016795,103.577226 430.579236,103.577226 C430.258362,103.577226 430.03229,103.715542 429.901019,103.992173 C429.769751,104.268804 429.704117,104.625513 429.704117,105.062299 L429.704117,108.818658 L429.704117,108.906015 C429.704117,109.255444 429.777043,109.473837 429.922897,109.561194 C430.06875,109.648551 430.265652,109.67039 430.513602,109.626712 C430.761552,109.583033 431.053259,109.510235 431.388721,109.408319 C431.724184,109.306402 432.081524,109.226324 432.460742,109.168087 C433.27752,109.750468 434.240152,110.187254 435.348636,110.478444 C436.45712,110.769635 437.653116,110.91523 438.936625,110.91523 C440.161792,110.91523 441.299447,110.784195 442.34959,110.522123 C443.399733,110.260051 444.318608,109.874224 445.106215,109.36464 C445.893823,108.855056 446.506406,108.228997 446.943966,107.486461 C447.381525,106.743924 447.600305,105.892192 447.600305,104.931263 C447.600305,103.737385 447.337769,102.805576 446.812698,102.135833 C446.287626,101.466098 445.565653,100.934675 444.646778,100.541564 C443.727902,100.148469 442.641296,99.835439 441.386958,99.6024741 C440.132621,99.3695538 438.790771,99.1220415 437.36141,98.8599379 C435.844537,98.5687478 434.721467,98.219319 433.992201,97.8116517 C433.262938,97.4039843 432.898305,96.8216039 432.898302,96.0645078 C432.898302,95.5403647 433.044155,95.0744601 433.335862,94.6667928 C433.627568,94.2591254 434.014079,93.9242566 434.495395,93.6621851 C434.97671,93.4001135 435.538245,93.1962805 436.179999,93.0506847 C436.821742,92.905089 437.492667,92.8322917 438.192773,92.8322917 C439.097063,92.8322917 439.862792,92.8978096 440.489961,93.0288454 C441.117131,93.1598812 441.649494,93.3491556 442.087054,93.5966672 C442.524613,93.8441788 442.874661,94.1426496 443.137197,94.4920784 C443.399733,94.8415071 443.618513,95.2491745 443.793536,95.7150791 C443.881014,96.0062693 443.983111,96.2974608 444.099828,96.588651 C444.21651,96.8798412 444.479046,97.0545555 444.887435,97.1127941 L445.149971,97.1127941 C445.645873,97.1127808 445.988627,96.8798278 446.178236,96.4139366 C446.367846,95.9480453 446.46265,95.2200692 446.46265,94.2300068 C446.462973,94.084411 446.45568,93.895138 446.440772,93.6621851 C446.426186,93.4292321 446.404308,93.2035598 446.375138,92.9851668 C446.345968,92.7667738 446.287626,92.5920595 446.200114,92.4610237 C446.112602,92.3299879 446.010505,92.27903 445.893823,92.3081486 L445.324995,92.482863 C445.091667,92.4246244 444.690571,92.2935886 444.121706,92.0897556 C443.552879,91.8859226 442.918417,91.6675296 442.218322,91.4345767 C441.518226,91.2016237 440.803545,90.9977907 440.07428,90.8230763 C439.345014,90.648362 438.717845,90.5610048 438.192773,90.5610048 C437.025948,90.5610048 435.953926,90.6920405 434.97671,90.9541121 C433.999494,91.2161637 433.153545,91.5947111 432.438864,92.0897556 C431.724184,92.5847801 431.169941,93.1744412 430.776138,93.8587387 C430.382334,94.5430363 430.185432,95.3074117 430.185432,96.151865 C430.185432,97.2875085 430.447968,98.1829197 430.97304,98.8380987 C431.498111,99.4932776 432.220085,100.002861 433.13896,100.36685 C434.057837,100.730838 435.137151,101.022028 436.376901,101.240421 C437.616654,101.458814 438.965795,101.699047 440.424327,101.961118 C441.766159,102.194071 442.823594,102.543499 443.596635,103.009405 C444.369635,103.47531 444.756146,104.174167 444.756168,105.105977 L444.756168,105.105977 Z M226.720211,55.7910116 L226.020115,65.2255882 L226.020115,65.575017 C226.020115,65.8953265 226.158675,66.171958 226.435797,66.4049103 C226.712918,66.6378659 226.997332,66.7543418 227.289038,66.7543391 C228.076645,66.7543391 228.514205,66.2593152 228.601717,65.2692668 C228.718181,63.6677181 228.834864,62.0880093 228.951765,60.5301392 C229.068315,58.9722697 229.184997,57.3925603 229.301812,55.7910116 L232.539754,55.7910116 C233.589897,55.7910116 234.114968,55.3542256 234.114968,54.4806537 C234.114968,53.6361971 233.589897,53.2139704 232.539754,53.2139744 L229.476836,53.2139744 C229.535178,52.3404025 229.586226,51.5541878 229.629982,50.8553302 C229.673738,50.1564727 229.724786,49.370258 229.783128,48.4966861 L233.414873,48.4966861 C234.465016,48.4966861 234.990087,48.0599001 234.990087,47.1863282 C234.990087,46.3418749 234.465016,45.9196489 233.414873,45.9196489 L229.914396,45.9196489 L230.614491,36.6597866 C230.614514,35.5532578 230.19154,34.9999947 229.345568,35 C228.528791,35 228.105816,35.4804646 228.076645,36.4413937 C227.959963,38.0428897 227.84328,39.6225998 227.726598,41.1805213 C227.609916,42.7383908 227.493232,44.3181009 227.37655,45.9196489 L224.226121,45.9196489 L224.838704,36.6597866 C224.838704,35.5532578 224.430315,34.9999947 223.613537,35 C222.796759,35 222.3592,35.4804646 222.300858,36.4413937 C222.18421,38.0428897 222.067528,39.6225998 221.950811,41.1805213 C221.834155,42.7383908 221.717473,44.3181009 221.600763,45.9196489 L218.450334,45.9196489 C217.400191,45.9196329 216.875119,46.3418589 216.875119,47.1863282 C216.875119,48.0599001 217.400191,48.4966861 218.450334,48.4966861 L221.425739,48.4966861 C221.367398,49.370258 221.316349,50.1564727 221.272593,50.8553302 C221.228837,51.5541878 221.177789,52.3404025 221.119448,53.2139744 L217.575215,53.2139744 C216.525072,53.2139744 216,53.6362011 216,54.4806537 C216,55.3542256 216.525072,55.7910116 217.575215,55.7910116 L220.98818,55.7910116 L220.288084,65.0945525 L220.288084,65.4439812 C220.288084,65.8225299 220.412059,66.1355601 220.66001,66.383071 C220.907961,66.6305826 221.206959,66.7543391 221.557007,66.7543391 C222.315444,66.7543391 222.753003,66.2593152 222.869686,65.2692668 C222.986369,63.6677181 223.095759,62.0880093 223.197856,60.5301392 C223.299953,58.9722697 223.409343,57.3925603 223.526025,55.7910116 L226.720211,55.7910116 Z M224.007341,48.4966861 L227.201526,48.4966861 C227.143164,49.370258 227.092116,50.1564727 227.04838,50.8553302 C227.005014,51.5541878 226.953966,52.3404025 226.895234,53.2139744 L223.701049,53.2139744 C223.759391,52.3404025 223.810439,51.5541878 223.854195,50.8553302 C223.897951,50.1564727 223.948999,49.370258 224.007341,48.4966861 L224.007341,48.4966861 Z M248.880174,37.48968 C248.821832,37.48968 248.778076,37.4969606 248.748906,37.5115193 C248.719736,37.5260779 248.67598,37.5333586 248.617638,37.5333586 C248.588468,37.1256925 248.544712,36.7762638 248.486371,36.4850723 C248.428097,36.1938807 248.107219,36.0482863 247.523739,36.0482863 C247.027854,36.2519393 246.356929,36.5722482 245.510965,37.0092154 C244.665017,37.4460014 243.826361,37.9046266 242.994997,38.3850912 C242.163634,38.8654864 241.419783,39.316831 240.763443,39.7391276 C240.107109,40.161267 239.720598,40.4597365 239.60391,40.6345388 C239.60391,41.3333751 239.910202,41.7992796 240.522786,42.0322539 C240.96034,42.0322539 241.427071,41.9448967 241.922976,41.7701823 C242.418878,41.5955106 242.907487,41.384397 243.388801,41.1368427 C243.870117,40.8893298 244.351432,40.6199802 244.832748,40.3287887 C245.314063,40.0375972 245.773501,39.7609669 246.211061,39.4988954 L246.211061,61.3381932 L241.529173,61.3381932 C240.770736,61.3964311 240.209201,61.5274669 239.844568,61.7313006 C239.479937,61.9351336 239.297621,62.2991217 239.297619,62.8232655 C239.35596,63.143575 239.552862,63.3619679 239.888324,63.4784444 C240.223787,63.5949209 240.639468,63.6531588 241.135369,63.6531588 L254.524693,63.6531588 C255.020595,63.5949209 255.370642,63.4638851 255.574836,63.2600514 C255.778994,63.0562178 255.881092,62.7359083 255.881128,62.2991223 C255.793616,61.9205743 255.552958,61.6730627 255.159155,61.5565862 C254.765375,61.4401097 254.276767,61.3673125 253.69333,61.3381932 L248.92393,61.3381932 L248.92393,39.4552168 L248.92393,38.4724484 C248.92393,38.1375782 248.909344,37.8099888 248.880174,37.48968 L248.880174,37.48968 Z M277.997336,49.807044 C277.997377,47.7687179 277.793183,45.8978176 277.384752,44.1943444 C276.976363,42.4908792 276.385657,41.0276462 275.612636,39.8046455 C274.839614,38.5816448 273.891567,37.6279964 272.768498,36.9436975 C271.645429,36.2593986 270.383798,35.9172505 268.983608,35.9172505 C267.641759,35.9172505 266.416591,36.2521206 265.308107,36.9218582 C264.199623,37.5915958 263.251577,38.5452469 262.463969,39.7828062 C261.676362,41.0203656 261.071071,42.5199978 260.648097,44.2817016 C260.225123,46.0433974 260.013635,48.0162135 260.013635,50.2001513 C260.013635,52.2384853 260.203245,54.1166656 260.582463,55.8346902 C260.961679,57.5527147 261.523213,59.0377876 262.267067,60.2899069 C263.010919,61.5420269 263.944379,62.5175153 265.067449,63.2163728 C266.190519,63.9152304 267.495905,64.2646591 268.983608,64.2646591 C270.383798,64.2646591 271.638135,63.9297897 272.74662,63.2600514 C273.855105,62.5903132 274.795858,61.6293841 275.56888,60.3772641 C276.341863,59.1251448 276.93986,57.603674 277.362874,55.8128509 C277.785743,54.0220311 277.99723,52.020095 277.997336,49.807044 L277.997336,49.807044 Z M269.114875,38.2758947 C270.106677,38.2757427 270.981796,38.5742122 271.740233,39.1713059 C272.49867,39.7682263 273.133132,40.5908389 273.643617,41.6391465 C274.154113,42.6874328 274.540624,43.9322728 274.80315,45.3736665 C275.065686,46.8150601 275.196954,48.3802103 275.196954,50.0691155 L275.196954,50.1127941 C275.196954,51.8016994 275.072978,53.3741295 274.825028,54.8300825 C274.577078,56.2860354 274.197859,57.5527147 273.687373,58.6301203 C273.176888,59.7075252 272.535133,60.5519785 271.762111,61.1634788 C270.98909,61.7749792 270.077507,62.0807293 269.027364,62.0807293 C267.889709,62.0807293 266.927077,61.7531399 266.13947,61.0979609 C265.351863,60.442782 264.710108,59.5619308 264.214208,58.4554059 C263.718307,57.3488857 263.353674,56.0676471 263.120309,54.6116895 C262.886944,53.1557412 262.770261,51.6269903 262.770261,50.0254369 L262.770261,49.807044 C262.770261,48.7587776 262.835895,47.6959314 262.967163,46.6185065 C263.098419,45.5411095 263.302613,44.5437825 263.579746,43.6265227 C263.856867,42.7092721 264.206915,41.9230574 264.629889,41.2678785 C265.052864,40.6126996 265.570643,40.1831942 266.183226,39.9793599 C266.562445,39.4552168 266.992711,39.0402701 267.474027,38.7345199 C267.955342,38.4287698 268.502292,38.2758947 269.114875,38.2758947 L269.114875,38.2758947 Z M299.807252,49.807044 C299.807293,47.7687179 299.603099,45.8978176 299.194668,44.1943444 C298.786279,42.4908792 298.195573,41.0276462 297.422552,39.8046455 C296.64953,38.5816448 295.701483,37.6279964 294.578414,36.9436975 C293.455345,36.2593986 292.193714,35.9172505 290.793523,35.9172505 C289.451674,35.9172505 288.226507,36.2521206 287.118023,36.9218582 C286.009539,37.5915958 285.061492,38.5452469 284.273885,39.7828062 C283.486278,41.0203656 282.880987,42.5199978 282.458013,44.2817016 C282.035039,46.0433974 281.823551,48.0162135 281.823551,50.2001513 C281.823551,52.2384853 282.013161,54.1166656 282.392379,55.8346902 C282.771595,57.5527147 283.333129,59.0377876 284.076983,60.2899069 C284.820835,61.5420269 285.754295,62.5175153 286.877365,63.2163728 C288.000435,63.9152304 289.305821,64.2646591 290.793523,64.2646591 C292.193714,64.2646591 293.448051,63.9297897 294.556536,63.2600514 C295.665021,62.5903132 296.605774,61.6293841 297.378796,60.3772641 C298.151778,59.1251448 298.749776,57.603674 299.17279,55.8128509 C299.595658,54.0220311 299.807146,52.020095 299.807252,49.807044 L299.807252,49.807044 Z M290.924791,38.2758947 C291.916593,38.2757427 292.791712,38.5742122 293.550149,39.1713059 C294.308586,39.7682263 294.943048,40.5908389 295.453533,41.6391465 C295.964028,42.6874328 296.35054,43.9322728 296.613066,45.3736665 C296.875602,46.8150601 297.00687,48.3802103 297.00687,50.0691155 L297.00687,50.1127941 C297.00687,51.8016994 296.882894,53.3741295 296.634944,54.8300825 C296.386994,56.2860354 296.007775,57.5527147 295.497289,58.6301203 C294.986804,59.7075252 294.345049,60.5519785 293.572027,61.1634788 C292.799005,61.7749792 291.887422,62.0807293 290.837279,62.0807293 C289.699624,62.0807293 288.736993,61.7531399 287.949386,61.0979609 C287.161779,60.442782 286.520024,59.5619308 286.024124,58.4554059 C285.528223,57.3488857 285.163589,56.0676471 284.930225,54.6116895 C284.69686,53.1557412 284.580177,51.6269903 284.580177,50.0254369 L284.580177,49.807044 C284.580177,48.7587776 284.645811,47.6959314 284.777079,46.6185065 C284.908335,45.5411095 285.112529,44.5437825 285.389662,43.6265227 C285.666783,42.7092721 286.016831,41.9230574 286.439805,41.2678785 C286.86278,40.6126996 287.380558,40.1831942 287.993142,39.9793599 C288.37236,39.4552168 288.802627,39.0402701 289.283943,38.7345199 C289.765258,38.4287698 290.312208,38.2758947 290.924791,38.2758947 L290.924791,38.2758947 Z M308.937663,39.7609669 L308.937663,61.3818718 L308.456347,61.3818718 C307.785422,61.3818718 307.209302,61.4255504 306.727986,61.5129076 C306.246671,61.6002648 305.976842,61.8914557 305.918501,62.3864795 C305.918501,62.9979799 306.115403,63.3546886 306.509207,63.4566051 C306.90301,63.5585216 307.391618,63.6240395 307.975031,63.6531588 L316.98876,63.6531588 C320.518407,63.5075637 323.253154,62.3136816 325.193002,60.0715139 C327.132838,57.8293456 328.102763,54.6553674 328.102774,50.5495801 L328.102774,50.2438299 C328.102774,48.2928531 327.832944,46.5238699 327.293288,44.9368805 C326.753633,43.3498911 325.98061,41.9958546 324.974223,40.8747711 C323.967835,39.7536863 322.749961,38.8946757 321.3206,38.297734 C319.891239,37.7007923 318.286853,37.4023228 316.507444,37.4023228 C315.836535,37.4023228 315.180196,37.4096034 314.538426,37.4241621 C313.896671,37.4387207 313.240332,37.4460014 312.569407,37.4460014 L308.500103,37.4460014 C307.741666,37.4460014 307.12179,37.5115193 306.640475,37.642555 C306.159159,37.7735908 305.918501,38.0429431 305.918501,38.4506091 C305.918499,38.7709179 305.991425,39.0184308 306.137281,39.1931452 C306.283134,39.3679769 306.480036,39.491732 306.727986,39.5644133 C306.975937,39.6364787 307.26035,39.6874379 307.581228,39.7172883 C307.902105,39.7471388 308.237567,39.7616974 308.587615,39.7609669 L308.937663,39.7609669 Z M325.302392,50.0254369 L325.302392,50.4185443 C325.302392,52.3695211 325.069027,54.0365877 324.602297,55.4197435 C324.135567,56.8028993 323.450056,57.9385427 322.545767,58.826674 C321.641477,59.7148045 320.532992,60.3627041 319.220314,60.7703715 C317.907635,61.1780381 316.405346,61.3818718 314.713449,61.3818718 L311.650532,61.3818718 L311.650532,39.7609669 C312.146433,39.7601911 312.649626,39.7529105 313.160113,39.7391276 C313.670599,39.7252701 314.173793,39.7179895 314.669694,39.7172883 C318.316024,39.7172883 320.999722,40.6199802 322.72079,42.4253613 C324.441859,44.2307437 325.302392,46.7641022 325.302392,50.0254369 L325.302392,50.0254369 Z M335.803823,46.7058637 C335.803823,47.2300068 335.920505,47.6813527 336.153871,48.0599001 C336.387225,48.4384475 336.62059,48.7150791 336.853966,48.8897934 C337.349857,48.8898494 337.79471,48.7442537 338.188523,48.4530075 C338.582323,48.1618093 339.027175,47.8414991 339.52308,47.4920784 C340.018972,47.1426496 340.602384,46.8296201 341.273318,46.5529886 C341.944243,46.276357 342.804777,46.1380419 343.85492,46.1380419 L343.898676,46.1380419 C345.707256,46.1380419 346.947007,46.5311493 347.617933,47.317364 C348.288858,48.1035787 348.65349,49.1955436 348.711832,50.5932587 L348.711832,52.1220095 C348.128417,52.063771 347.574175,51.9982531 347.049105,51.9254558 C346.52404,51.8525213 346.013555,51.8161221 345.517647,51.8162594 L343.723652,51.8162594 C343.577884,51.845378 343.417446,51.8599379 343.242336,51.8599379 C343.067335,51.8599379 342.906897,51.8744979 342.761021,51.9036165 C339.931469,52.1074495 337.729086,52.7771885 336.153871,53.9128319 C334.578656,55.0484754 333.791049,56.6063456 333.791049,58.5864417 C333.791049,59.4600136 333.973365,60.238949 334.337998,60.9232466 C334.702632,61.6075448 335.198532,62.1899258 335.825701,62.6703904 C336.45287,63.1508549 337.196721,63.514843 338.057255,63.7623553 C338.917789,64.0098675 339.829371,64.1336233 340.792003,64.1336233 C342.279707,64.1336233 343.672605,63.8933911 344.970697,63.4129265 C346.268778,62.932462 347.544993,62.1972058 348.799344,61.2071574 C348.828375,61.5565862 348.864839,61.8841757 348.908734,62.1899258 C348.952489,62.495676 349.018123,62.7577476 349.105635,62.9761406 C349.193147,63.1945335 349.331707,63.3619679 349.521317,63.4784444 C349.710927,63.5949209 349.966169,63.6531588 350.287046,63.6531588 L352.343577,63.6531588 C353.131184,63.5949209 353.78023,63.4857244 354.290717,63.3255693 C354.801204,63.1654143 355.100202,62.8960634 355.187714,62.5175153 C355.187901,62.1098486 355.063927,61.8404971 354.815788,61.7094613 C354.567837,61.5784268 354.283423,61.3964325 353.962547,61.1634788 C353.612497,61.1634788 353.247865,61.1925981 352.868648,61.250836 C352.48943,61.3090739 352.153967,61.3381932 351.862261,61.3381932 C351.628966,61.2217167 351.490405,61.0542823 351.446579,60.8358894 C351.402823,60.6174964 351.380945,60.3044669 351.380945,59.8967996 L351.380945,50.8990088 C351.351775,49.7342561 351.220507,48.7150884 350.987142,47.8415071 C350.753834,46.9679526 350.345444,46.2326958 349.761975,45.6357381 C349.178579,45.0388457 348.405557,44.5874997 347.442909,44.2817016 C346.480278,43.9759514 345.255111,43.8230763 343.767408,43.8230763 C343.475702,43.8230763 343.118361,43.8449156 342.695387,43.8885942 C342.272413,43.9322728 341.856731,43.9977907 341.448342,44.0851479 L341.404586,44.0851479 C339.946054,44.2889809 338.706302,44.6165704 337.685329,45.0679163 C336.664357,45.5192622 336.037189,46.0652447 335.803823,46.7058637 L335.803823,46.7058637 Z M348.711832,54.3496179 L348.711832,58.2806915 C347.749215,59.416335 346.604268,60.2899069 345.276989,60.9014073 C343.949729,61.5129076 342.542246,61.8186578 341.054538,61.8186578 C339.74186,61.8186578 338.662546,61.4983483 337.816597,60.8577287 C336.970649,60.2171104 336.547674,59.4017764 336.547674,58.4117273 C336.547674,57.7128698 336.759161,57.0868101 337.182136,56.5335477 C337.60511,55.9802853 338.18123,55.52166 338.910496,55.1576719 C339.639763,54.7937132 340.493004,54.5170823 341.47022,54.3277786 C342.447437,54.1385336 343.504872,54.0438964 344.642527,54.0438677 L345.867694,54.0438677 C346.363596,54.0437958 346.852203,54.0801944 347.333519,54.1530642 C347.814834,54.2258621 348.274272,54.29138 348.711832,54.3496179 L348.711832,54.3496179 Z M369.277134,63.0416585 C368.956256,63.6531588 368.649964,64.2864984 368.358258,64.9416774 C368.066552,65.5968563 367.738382,66.2301959 367.373749,66.8416963 C367.009117,67.4531966 366.586142,67.9991791 366.104826,68.4796436 C365.623511,68.9601082 365.032805,69.3168169 364.33271,69.5497692 L364.33271,69.5060906 C363.924321,69.4478421 363.406542,69.3095263 362.779373,69.091144 C362.152204,68.872751 361.517743,68.7635545 360.875989,68.7635545 C360.584283,68.7635612 360.270698,68.9455549 359.935236,69.3095369 C359.599775,69.673525 359.432044,70.0447931 359.432042,70.4233411 C359.432041,70.6271895 359.592479,70.8164632 359.913358,70.9911629 C360.234235,71.1659019 360.628039,71.311497 361.094769,71.4279488 C361.561499,71.5444253 362.064692,71.6317825 362.60435,71.6900204 C363.144006,71.7482583 363.6472,71.7773776 364.11393,71.7773776 C364.930708,71.7773696 365.689145,71.508018 366.38924,70.9693236 C367.089333,70.4306211 367.709209,69.8409601 368.248869,69.2003405 C368.788526,68.5597215 369.218792,67.9700604 369.539669,67.4313573 C369.860547,66.8926542 370.035571,66.6233033 370.064741,66.6233033 C371.202396,64.2646591 372.369221,61.8113778 373.565218,59.2634599 C374.761215,56.7155434 375.95721,54.1457862 377.153207,51.5541878 C377.649108,50.4767829 378.06479,49.5595324 378.400252,48.8024362 C378.735714,48.0453401 379.107639,47.3464826 379.516029,46.7058637 C380.245296,46.7059276 380.770367,46.6040105 381.091243,46.4001135 C381.411957,46.1962965 381.572396,45.8323077 381.572559,45.3081486 C381.572535,44.7257669 381.076635,44.4054581 380.084856,44.3472195 L374.877897,44.3472195 C374.29452,44.4345767 373.88613,44.5801724 373.65273,44.7840054 C373.41941,44.9878384 373.302728,45.3081486 373.302682,45.7449345 C373.419364,46.3855535 373.988192,46.7058637 375.009165,46.7058637 L376.846915,46.7058637 C375.825942,48.8897934 374.797677,51.1319618 373.76212,53.4323674 C372.726562,55.7327743 371.712882,57.974942 370.72108,60.1588711 C369.670936,57.9749414 368.613501,55.7691723 367.548773,53.5415639 C366.484045,51.3139555 365.397438,49.0353892 364.288954,46.7058637 L365.951681,46.7058637 C366.418411,46.7058637 366.812215,46.6185065 367.133092,46.4437921 C367.453936,46.2690777 367.614374,45.9196489 367.614407,45.3955058 C367.556066,45.1625528 367.417505,44.9368805 367.198726,44.7184875 C366.979946,44.5002599 366.60802,44.3765034 366.082948,44.3472195 L360.657209,44.3472195 C360.102968,44.3472568 359.658115,44.420054 359.322652,44.5656125 C358.98719,44.7111362 358.819459,45.0314464 358.819459,45.5265416 C358.819459,45.8177318 358.863215,46.0142854 358.950727,46.1162026 C359.038237,46.2181198 359.154919,46.305477 359.300774,46.3782742 C359.446627,46.4510714 359.621651,46.5238699 359.825846,46.5966672 C360.03004,46.6694644 360.24882,46.8223395 360.482185,47.0552924 L360.744721,47.0552924 C360.890575,47.084411 361.153111,47.098971 361.532328,47.098971 C362.845008,49.7488054 364.143102,52.4059204 365.426609,55.0703147 C366.710114,57.7347091 367.993622,60.3918241 369.277134,63.0416585 L369.277134,63.0416585 Z M402.969224,58.3680487 C402.969189,58.9504304 402.808751,59.4600143 402.487909,59.8967996 C402.167071,60.3335855 401.736804,60.7048536 401.197108,61.0106038 C400.657498,61.3163539 400.030329,61.5493069 399.315601,61.7094613 C398.600915,61.8696137 397.849771,61.9496909 397.062169,61.9496936 C396.216226,61.9496936 395.414034,61.8623364 394.655591,61.687622 C393.897155,61.5129076 393.211645,61.2653953 392.599061,60.9450859 C391.986485,60.6247757 391.490584,60.2462283 391.111359,59.8094424 C390.732147,59.3726557 390.498782,58.8776319 390.411263,58.3243701 C390.26541,57.8293463 390.068508,57.4580782 389.820558,57.2105659 C389.572606,56.9630537 389.229852,56.8392979 388.792293,56.8392979 C388.471419,56.8392979 388.245347,56.9776136 388.114075,57.2542445 C387.982807,57.5308754 387.917173,57.8875842 387.917173,58.3243701 L387.917173,62.0807293 L387.917173,62.1680865 C387.917173,62.5175153 387.9901,62.7359083 388.135953,62.8232655 C388.281807,62.9106227 388.478709,62.932462 388.726659,62.8887834 C388.974609,62.8451048 389.266315,62.7723069 389.601778,62.6703904 C389.93724,62.5684739 390.29458,62.488396 390.673799,62.4301581 C391.490577,63.0125392 392.453208,63.4493251 393.561692,63.740516 C394.670177,64.0317068 395.866173,64.1773019 397.149681,64.1773019 C398.374848,64.1773019 399.512503,64.0462662 400.562646,63.7841946 C401.612789,63.522123 402.531665,63.1362956 403.319272,62.6267118 C404.106879,62.117128 404.719463,61.4910683 405.157022,60.7485322 C405.594582,60.0059961 405.813362,59.1542634 405.813362,58.1933343 C405.813362,56.9994569 405.550826,56.0676471 405.025754,55.3979042 C404.500683,54.7281693 403.778709,54.1967462 402.859834,53.8036355 C401.940959,53.4105408 400.854352,53.0975106 399.600015,52.8645457 C398.345678,52.6316254 397.003828,52.3841131 395.574467,52.1220095 C394.057594,51.8308193 392.934524,51.4813906 392.205258,51.0737232 C391.475995,50.6660559 391.111362,50.0836755 391.111359,49.3265794 C391.111359,48.8024362 391.257212,48.3365317 391.548918,47.9288643 C391.840625,47.521197 392.227136,47.1863282 392.708451,46.9242566 C393.189767,46.6621851 393.751301,46.4583521 394.393056,46.3127563 C395.034799,46.1671605 395.705724,46.0943633 396.40583,46.0943633 C397.310119,46.0943633 398.075849,46.1598812 398.703018,46.290917 C399.330187,46.4219528 399.862551,46.6112271 400.30011,46.8587387 C400.73767,47.1062503 401.087718,47.4047212 401.350254,47.75415 C401.612789,48.1035787 401.831569,48.5112461 402.006593,48.9771506 C402.09407,49.2683408 402.196168,49.5595324 402.312885,49.8507225 C402.429567,50.1419127 402.692103,50.3166271 403.100492,50.3748657 L403.363028,50.3748657 C403.858929,50.3748524 404.201683,50.1418994 404.391293,49.6760082 C404.580903,49.2101169 404.675707,48.4821408 404.675707,47.4920784 C404.67603,47.3464826 404.668736,47.1572096 404.653829,46.9242566 C404.639243,46.6913037 404.617365,46.4656314 404.588195,46.2472384 C404.559025,46.0288454 404.500683,45.854131 404.413171,45.7230952 C404.325659,45.5920595 404.223561,45.5411015 404.106879,45.5702202 L403.538052,45.7449345 C403.304723,45.686696 402.903628,45.5556602 402.334763,45.3518272 C401.765935,45.1479942 401.131474,44.9296012 400.431378,44.6966483 C399.731283,44.4636953 399.016602,44.2598623 398.287336,44.0851479 C397.558071,43.9104335 396.930901,43.8230763 396.40583,43.8230763 C395.239005,43.8230763 394.166983,43.9541121 393.189767,44.2161837 C392.21255,44.4782353 391.366601,44.8567827 390.651921,45.3518272 C389.93724,45.8468517 389.382998,46.4365128 388.989194,47.1208103 C388.595391,47.8051079 388.398489,48.5694833 388.398489,49.4139366 C388.398489,50.5495801 388.661025,51.4449913 389.186096,52.1001702 C389.711168,52.7553492 390.433141,53.264933 391.352016,53.6289211 C392.270894,53.9929092 393.350207,54.2841 394.589958,54.502493 C395.82971,54.720886 397.178851,54.9611182 398.637384,55.2231898 C399.979216,55.4561421 401.036651,55.8055709 401.809691,56.2714761 C402.582691,56.7373814 402.969203,57.4362389 402.969224,58.3680487 L402.969224,58.3680487 Z" id="Text" fill="#384259"></path>
            </g>
        </g>
    </g>
</svg>